<?xml version="1.0" standalone="no"?>
<!DOCTYPE svg PUBLIC "-//W3C//DTD SVG 1.1//EN" "http://www.w3.org/Graphics/SVG/1.1/DTD/svg11.dtd" >
<svg>
<metadata>
Created by FontForge 20120731 at Fri Nov 13 01:46:39 2015
 By ,,,
Typeface (c) Typesgal 2012. All Rights Reserved
</metadata>
<defs>
<font id="Awery" horiz-adv-x="1147" >
  <font-face 
    font-family="Awery"
    font-weight="400"
    font-stretch="normal"
    units-per-em="2048"
    panose-1="2 0 5 0 0 0 0 0 0 0"
    ascent="1638"
    descent="-410"
    x-height="967"
    cap-height="1350"
    bbox="-131 -432 2024.51 1854"
    underline-thickness="150"
    underline-position="-142"
    unicode-range="U+0020-FB06"
  />
<missing-glyph horiz-adv-x="1024" 
d="M100 0v1434h1024v-1434h-1024zM150 50h924v1334h-924v-1334zM605 1297q338 -3 350 -274q-3 -200 -146 -304q-149 -92 -152 -166v-47q0 -55 -61 -55q-59 0 -59 58v71q4 110 100.5 225.5t96.5 209.5q-8 180 -163 180h-17q-94 0 -94 -87q17 -34 35 -68q0 -119 -111 -128
q-114 9 -120 120q0 257 341 265zM597 365q119 0 128 -110q0 -117 -128 -120q-111 1 -120 111q3 116 120 119z" />
    <glyph glyph-name=".notdef" horiz-adv-x="1024" 
d="M100 0v1434h1024v-1434h-1024zM150 50h924v1334h-924v-1334zM605 1297q338 -3 350 -274q-3 -200 -146 -304q-149 -92 -152 -166v-47q0 -55 -61 -55q-59 0 -59 58v71q4 110 100.5 225.5t96.5 209.5q-8 180 -163 180h-17q-94 0 -94 -87q17 -34 35 -68q0 -119 -111 -128
q-114 9 -120 120q0 257 341 265zM597 365q119 0 128 -110q0 -117 -128 -120q-111 1 -120 111q3 116 120 119z" />
    <glyph glyph-name=".null" horiz-adv-x="0" 
 />
    <glyph glyph-name="nonmarkingreturn" horiz-adv-x="508" 
 />
    <glyph glyph-name="space" unicode=" " horiz-adv-x="508" 
 />
    <glyph glyph-name="space" unicode="&#xa0;" horiz-adv-x="508" 
 />
    <glyph glyph-name="exclam" unicode="!" horiz-adv-x="477" 
d="M238 1350q137 0 145 -141q-88 -842 -124 -842h-34q-40 0 -126 844q6 130 139 139zM241 0q-55 0 -93.5 38.5t-38.5 92.5q0 55 38.5 93.5t93.5 38.5t93.5 -38.5t38.5 -93.5q0 -54 -38.5 -92.5t-93.5 -38.5z" />
    <glyph glyph-name="quotedbl" unicode="&#x22;" horiz-adv-x="790" 
d="M100 1219q11 131 123 131h10q112 0 123 -131v-3q-73 -396 -110 -423h-36q-38 27 -110 423v3zM434 1218q11 132 123 132h10q112 0 123 -132v-3q-73 -396 -110 -423h-36q-37 27 -110 423v3z" />
    <glyph glyph-name="numbersign" unicode="#" horiz-adv-x="1095" 
d="M650 794q-110 0 -110 75t110 75h104l81 357q10 47 82 47t61 -47l-80 -357h65q100 0 100 -80q0 -70 -90 -70h-109l-54 -238h163q90 0 90 -80q0 -69 -100 -69h-186l-81 -361q-11 -47 -82 -47q-72 0 -62 47l168 748h-70zM354 409l-82 -363q-11 -47 -82 -47q-73 0 -62 47
l81 361h-71q-90 0 -90 69v10q0 70 69 70h126l53 238h-179q-69 0 -69 70v10q0 70 90 70h192l80 357q11 47 83 47t61 -47l-168 -746h93q74 -11 74 -73q0 -63 -77 -73h-122z" />
    <glyph glyph-name="dollar" unicode="$" horiz-adv-x="1014" 
d="M552 1029q0 -92 -70.5 -92t-70.5 92v181q-102 0 -133 -122q1 -184 217 -247q447 -147 447 -475q0 -319 -390 -361v-30q0 -90 -70 -90q-71 0 -71 71v49h-9q-125 8 -179 31q-59 26 -39.5 83t100.5 30q43 -14 108 -14h19v247q0 92 70.5 92t70.5 -92v-246h20q141 1 150 200
q-16 161 -238 230q-423 128 -423 461q0 260 350 320q0 90 81 90q60 -12 60 -90q330 -51 330 -150v-181q0 -74 -50 -90q-54 0 -90 181q-45 89 -190 110v-188z" />
    <glyph glyph-name="percent" unicode="%" horiz-adv-x="1791" 
d="M1407 1353q59 -6 59 -30v-9l-1002 -1316h-49q-59 0 -59 40l1002 1315h49zM520 990q0 234 -98 237q-98 0 -98 -236q0 -196 56 -235q32 -16 32 -55q-5 -73 -84 -61q-218 41 -220 352q16 333 304 353q314 -8 324 -354q-11 -151 -69 -236q-37 -68 -106 -45q-81 27 -54 125
q13 18 13 155zM1299 357q0 -234 98 -237q98 0 98 236q0 196 -56 235q-32 16 -32 55q5 73 84 61q218 -41 220 -352q-16 -333 -304 -353q-314 8 -324 354q11 151 69 236q37 68 106 45q81 -27 54 -125q-13 -18 -13 -155z" />
    <glyph glyph-name="ampersand" unicode="&#x26;" horiz-adv-x="1563" 
d="M1503 884q0 -62 -66 -91.5t-99 -86.5l-277 -401l369 -496q61 -69 8 -115.5t-114 22.5q-301 272 -542 575.5t-257 354.5q-192 -77 -192 -299q0 -126 188 -169q78 -5 105 9q75 32 104 -27q31 -63 -55 -109l-34 -14q-108 -38 -209 -38q-367 3 -378 308q-2 265 408 457v11
q-70 143 -70 249q0 321 378 327q308 -14 308 -258q0 -158 -151 -232q-78 -41 -111 15q-25 42 11 77q62 47 62 150q-1 119 -119 119q-140 -9 -140 -149q0 -121 90 -287t242 -343l198 272q27 52 -52 77.5t-80 91.5h475z" />
    <glyph glyph-name="quotesingle" unicode="'" horiz-adv-x="447" 
d="M100 1219q11 131 123 131h10q112 0 123 -131v-3q-73 -396 -110 -423h-36q-38 27 -110 423v3z" />
    <glyph glyph-name="parenleft" unicode="(" horiz-adv-x="713" 
d="M657 1558q40 -10 40 -61q-362 -222 -362 -814q0 -613 352 -815l10 -30q-15 -41 -30 -41q-588 314 -594 886q0 550 584 875z" />
    <glyph glyph-name="parenright" unicode=")" horiz-adv-x="700" 
d="M637 683q-6 -572 -594 -886q-15 0 -30 41l10 30q352 202 352 815q0 592 -362 814q0 51 40 61q584 -325 584 -875z" />
    <glyph glyph-name="asterisk" unicode="*" horiz-adv-x="902" 
d="M452 1348q69 0 98 -107l-36 -143h18q99 108 178 108q75 0 90 -100q0 -79 -187 -115v-17q127 0 187 -125q-21 -90 -90 -90h-8q-70 0 -170 108h-18l36 -143q-25 -107 -107 -107q-76 0 -98 107l36 143h-18q-108 -108 -161 -108h-17q-50 0 -89 63v27q0 96 187 125v17
q-187 45 -187 98v54q39 63 97 63q65 0 170 -108h18v8l-36 135q21 107 107 107z" />
    <glyph glyph-name="plus" unicode="+" horiz-adv-x="1185" 
d="M600 1191q69 0 69 -88v-352h402q87 0 87 -68v-11q0 -68 -68 -68h-421v-372q0 -68 -69 -68h-9q-69 0 -69 68v372h-401q-88 0 -88 79q0 68 98 68h391v352q0 88 78 88z" />
    <glyph glyph-name="comma" unicode="," horiz-adv-x="468" 
d="M209 276q203 -6 209 -229q0 -207 -285 -343q-27 0 -41 37q0 40 98 128q78 73 78 129v20l-78 -20q-133 2 -140 129q0 149 159 149z" />
    <glyph glyph-name="hyphen" unicode="-" horiz-adv-x="644" 
d="M124 574h387q100 0 100 -99q0 -100 -100 -100h-387q-99 0 -99 100q0 99 99 99z" />
    <glyph glyph-name="hyphen" unicode="&#xad;" horiz-adv-x="644" 
d="M124 574h387q100 0 100 -99q0 -100 -100 -100h-387q-99 0 -99 100q0 99 99 99z" />
    <glyph glyph-name="period" unicode="." horiz-adv-x="382" 
d="M191 266q138 -4 138 -139q0 -119 -138 -129q-140 4 -140 129q0 131 140 139z" />
    <glyph glyph-name="slash" unicode="/" horiz-adv-x="636" 
d="M630 1346l-507 -1340l-50 -10q-69 10 -69 30l496 1321q70 39 130 -1z" />
    <glyph glyph-name="zero" unicode="0" horiz-adv-x="1070" 
d="M768 1264q206 -150 240 -582q-4 -672 -474 -684q-461 2 -467 665q22 552 386 667q80 19 98 -42q15 -56 -47 -80q-175 -81 -179 -535q0 -527 179 -546h30q209 0 219 546q0 395 -84 489q-32 86 34 111q38 15 65 -9z" />
    <glyph glyph-name="one" unicode="1" horiz-adv-x="816" 
d="M294 1096q-5 57 -99 41t-94 41q82 50 376 172q61 -10 61 -102v-1062q0 -62 89.5 -88t89.5 -98h-602q0 72 89.5 98t89.5 88v910z" />
    <glyph glyph-name="two" unicode="2" horiz-adv-x="1112" 
d="M520 1349q423 -19 425 -365q0 -276 -537 -750v-21h395q87 0 125 56t107 37l-78 -256q-28 -50 -82 -50h-822q0 71 53 116l302 270q295 290 295 558q0 173 -234 202q-188 0 -294 -202l-17 -5q-54 5 -54 35q4 364 416 375z" />
    <glyph glyph-name="three" unicode="3" horiz-adv-x="966" 
d="M447 1349q328 -6 347 -287q0 -158 -139 -269v-9q218 -97 218 -318q-30 -429 -485 -466q-358 9 -358 129q35 99 119 99q101 -79 318 -79q188 18 188 238q0 241 -377 257l-19 30q-6 31 69 50q239 87 239 278q0 146 -180 149q-176 0 -268 -139q-51 0 -59 29v10
q66 277 387 298z" />
    <glyph glyph-name="four" unicode="4" horiz-adv-x="1138" 
d="M633 332h-532q-51 0 -51 51v83q0 42 26 77l335 414q60 71 113.5 25t-5.5 -116l-253 -335h362v701q3 93 115 106q121 0 121 -100v-705h101q90 0 90 -100q0 -101 -90 -101h-101v-147q0 -62 85 -88t85 -98h-571q0 72 85 98t85 88v147z" />
    <glyph glyph-name="five" unicode="5" horiz-adv-x="984" 
d="M395 1340l61 10h426q41 -6 41 -40q-51 -183 -132 -183h-355q-31 0 -71 -121q547 -105 547 -498q-18 -483 -527 -508q-325 4 -325 162q0 91 132 92q137 -96 284 -92q199 0 233 214v71q0 244 -416 324l-133 22q-58 6 -32 59l141 276q88 162 126 212z" />
    <glyph glyph-name="six" unicode="6" horiz-adv-x="1044" 
d="M540 856q36 3 74 3q348 0 375 -395q-4 -462 -474 -464q-443 0 -445 543q0 475 553 750q123 45 200 51.5t114 -19.5q21 -71 -58 -81q-540 -117 -540 -770q14 -350 226 -350q204 0 207 319q-14 300 -186 300l-35 -1q-74 -7 -79.5 50t68.5 64z" />
    <glyph glyph-name="seven" unicode="7" horiz-adv-x="1035" 
d="M335 1127q-145 0 -179.5 -71t-95.5 -40l103 295q13 39 60 39h700q57 0 71 -51l-49 -147q-12 -25 -41 -25h-569zM538 60q-16 -60 -102 -60q-71 0 -71 60l321 894q36 106 117.5 78.5t45.5 -133.5z" />
    <glyph glyph-name="eight" unicode="8" horiz-adv-x="992" 
d="M132 505q67 99 143 48q54 -36 36 -98q-22 -61 -22 -117q0 -219 208 -219q219 4 219 159q0 142 -297 318q-329 188 -329 427q12 315 408 328q359 -2 392 -277q7 -92 -51 -176q-70 -91 -144 -41q-60 40 -31 111q22 49 22 95q0 168 -188 168q-174 0 -199 -149
q0 -122 228 -267q398 -208 398 -467q0 -339 -448 -348q-396 12 -407 338q4 93 62 167z" />
    <glyph glyph-name="nine" unicode="9" horiz-adv-x="1048" 
d="M509 487q-36 -3 -74 -3q-348 0 -375 395q4 462 474 464q443 0 445 -543q0 -475 -553 -750q-93 -35 -185 -46.5t-129 14.5q-21 71 58 81q540 117 540 770q-14 350 -226 350q-204 0 -207 -319q14 -300 186 -300l35 1q74 7 79.5 -50t-68.5 -64z" />
    <glyph glyph-name="colon" unicode=":" horiz-adv-x="481" 
d="M240 266q138 -4 138 -139q0 -109 -138 -129q-140 14 -140 129q0 131 140 139zM240 966q138 -4 138 -139q0 -109 -138 -129q-140 14 -140 129q0 131 140 139z" />
    <glyph glyph-name="semicolon" unicode=";" horiz-adv-x="545" 
d="M241 966q138 -4 138 -139q0 -109 -138 -129q-140 14 -140 129q0 131 140 139zM259 276q183 -6 189 -229q0 -207 -265 -343q-27 0 -41 37q0 40 98 128q78 73 78 129v20l-78 -20q-133 2 -140 129q0 149 159 149z" />
    <glyph glyph-name="semicolon" unicode="&#x37e;" horiz-adv-x="545" 
d="M241 966q138 -4 138 -139q0 -109 -138 -129q-140 14 -140 129q0 131 140 139zM259 276q183 -6 189 -229q0 -207 -265 -343q-27 0 -41 37q0 40 98 128q78 73 78 129v20l-78 -20q-133 2 -140 129q0 149 159 149z" />
    <glyph glyph-name="less" unicode="&#x3c;" horiz-adv-x="1190" 
d="M1122 1141q46 -8 51 -57t-25 -66l-840 -344l834 -347q34 -27 26.5 -78t-46.5 -51l-1074 445q-28 12 -28 37q0 24 27 34z" />
    <glyph glyph-name="equal" unicode="=" horiz-adv-x="1185" 
d="M109 893h983q69 0 69 -69v-10q0 -69 -89 -69h-953q-99 0 -99 79q0 69 89 69zM109 596h983q69 0 69 -70v-10q0 -60 -60 -60h-1012q-69 0 -69 70t89 70z" />
    <glyph glyph-name="greater" unicode="&#x3e;" horiz-adv-x="1190" 
d="M1147 714q27 -10 27 -34q0 -25 -28 -37l-1074 -445q-39 0 -46.5 51t26.5 78l834 347l-840 344q-30 17 -25 66t51 57z" />
    <glyph glyph-name="question" unicode="?" horiz-adv-x="1001" 
d="M496 1350q393 -4 407 -318q-4 -233 -170 -354q-173 -106 -176 -192v-55q0 -64 -71 -64q-69 0 -69 67v83q5 128 117 262t112 243q-9 209 -189 209h-20q-109 0 -109 -100q19 -40 40 -79q0 -139 -129 -149q-132 10 -139 139q0 299 396 308zM487 267q138 0 149 -128
q0 -135 -149 -139q-129 1 -139 129q3 135 139 138z" />
    <glyph glyph-name="at" unicode="@" horiz-adv-x="1980" 
d="M740 353q-34 -150 112 -141q149 0 291 252q91 221 61 332q-32 52 -121 50q-183 0 -333 -443zM1716 -144q-304 -261 -707 -261q-402 0 -668 260.5t-239 628.5t330.5 628.5t706.5 260.5t619 -260q112 -150 116 -359q-6 -429 -288 -612q-160 -112 -322 -112
q-191 22 -191 182h-20q-158 -182 -322 -182q-218 9 -222 252q29 324 218.5 505.5t385.5 169.5q101 -5 161 -50q45 54 202 40q20 -10 20 -30l-201 -695q0 -60 80 -50q316 127 352 543q-8 194 -84 300q-174 219 -514 219t-596 -219.5t-279 -530.5q-22 -310 202 -529.5
t564 -219.5q339 0 595 220q103 87 180 213q48 83 112 47t17 -120q-88 -142 -208 -239z" />
    <glyph glyph-name="A" unicode="A" horiz-adv-x="1563" 
d="M353 162q-26 -47 65 -69t91 -93h-489q0 61 64.5 82t102.5 90l339 701q39 83 102.5 53t24.5 -113zM896 554l-248 534q-12 28 2 52l88 189q17 21 41 21t39 -26l562 -1179q17 -32 87 -56.5t70 -88.5h-601q0 61 74 86.5t67 75.5l-117 251h-261q-92 -3 -92 67.5t92 73.5h197z
" />
    <glyph glyph-name="B" unicode="B" horiz-adv-x="1435" 
d="M703 1216q-94 0 -94 69.5t103 63.5q577 -10 577 -369q0 -154 -155 -268l-10 -10v-10q227 -107 227 -320q0 -230 -310 -341q-143 -31 -258 -31h-763q0 68 87.5 102.5t163.5 32.5h490q285 1 291 237q-17 247 -310 247h-224q-24 0 -24 -30v-171q0 -175 -134 -175t-134 175
v563v188q-11 60 -108.5 85.5t-97.5 97.5h439q35 0 35 -34v-527q0 -27 24 -27h203q279 23 279 205q-3 247 -297 247z" />
    <glyph glyph-name="C" unicode="C" horiz-adv-x="1482" 
d="M767 1370q231 0 410 -83h21q8 79 72 83h39l74 -441q-75 -17 -164 141q-122 167 -441 167q-385 0 -390 -574q0 -478 388 -535q353 0 555 256h11q46 -19 51 -40v-21q-210 -348 -615 -348q-677 24 -698 686q21 684 687 709z" />
    <glyph glyph-name="D" unicode="D" horiz-adv-x="1628" 
d="M532 135h158q468 0 516 526q0 512 -454 547h-478q-76 1 -165 36.5t-89 107.5h713q388 0 626 -226q161 -180 157 -455q0 -398 -434 -609q-191 -62 -371 -62h-619h-71q0 70 101.5 96t103.5 91v737q0 175 134 175t134 -175v-754q0 -35 38 -35z" />
    <glyph glyph-name="E" unicode="E" horiz-adv-x="1327" 
d="M827 773q134 0 134 165l11 11h51q31 -11 31 -62v-381q0 -62 -31 -62h-48l-13 13q-4 161 -135 173h-145q-93 0 -93 71.5t93 71.5h145zM488 171q0 -36 32 -36h484q76 7 110.5 117t132.5 110l-66 -295q-16 -67 -75 -67h-1083q0 72 99 97t97 88v981q1 63 -97.5 88t-98.5 97
h1052q103 0 103 -134l14 -207q-71 0 -107 98.5t-95 98.5h-466q-36 0 -36 -35v-1001z" />
    <glyph glyph-name="F" unicode="F" horiz-adv-x="1241" 
d="M827 773q134 0 134 165l11 11h51q31 -11 31 -62v-381q0 -62 -31 -62h-48l-13 13q-4 161 -135 173h-145q-93 0 -93 71.5t93 71.5h145zM219 1166q1 63 -97.5 88t-98.5 97h1052q103 0 103 -134l14 -207q-71 0 -107 98.5t-95 98.5h-466q-36 0 -36 -35v-986q0 -62 98.5 -88
t98.5 -98h-663q0 72 98.5 98t98.5 88v980z" />
    <glyph glyph-name="G" unicode="G" horiz-adv-x="1606" 
d="M1137 590q-2 46 -93.5 75.5t-91.5 98.5h635q0 -68 -94 -101t-89 -82v-422q0 -101 -236 -147q-31 -5 -31 28v550zM840 1237q-344 0 -442 -380l-10 -93v-102q0 -359 308 -513q74 -39 221 -41q105 17 116 -50q10 -73 -92 -80q-35 -2 -70 -3q-766 21 -791 687q23 679 778 708
q227 -2 340 -83q8 79 72 83h39l74 -441q-75 -17 -164 141q-84 108 -212 146q-51 21 -167 21z" />
    <glyph glyph-name="H" unicode="H" horiz-adv-x="1563" 
d="M483 186q0 -62 98 -88t98 -98h-659q0 72 98 98t98 88v978q0 62 -98 88t-98 98h659q0 -72 -98 -98t-98 -88v-978zM1042 607h-353q-105 0 -105 72.5t105 72.5h353q32 0 32 32v380q0 62 -98 88t-98 98h659q0 -72 -98 -98t-98 -88v-978q0 -62 98 -88t98 -98h-659q0 72 98 98
t98 88v391q0 30 -32 30z" />
    <glyph glyph-name="I" unicode="I" horiz-adv-x="704" 
d="M216 1164q0 62 -98 88t-98 98h659q0 -72 -98 -98t-98 -88v-978q0 -62 98 -88t98 -98h-659q0 72 98 98t98 88v978z" />
    <glyph glyph-name="J" unicode="J" horiz-adv-x="863" 
d="M836 1349q0 -71 -95.5 -104t-95.5 -87v-685q0 -464 -394 -473q-217 0 -231 161q10 129 142 141q140 0 140 -171q80 0 80 90v936q0 61 -97.5 91t-97.5 101h649z" />
    <glyph glyph-name="K" unicode="K" horiz-adv-x="1435" 
d="M769 716l871 -954q68 -62 33 -101t-103 24l-1064 896q-12 7 -23 7v-400q-4 -59 96 -88t100 -100h-657q0 71 99 98t95 88v980q0 58 -97.5 84t-97.5 100h658q0 -73 -99 -96.5t-97 -90.5v-369h116q108 0 170 -78zM983 1208q27 23 -61 51t-88 91h73h411h92q-2 -71 -90.5 -97
t-132.5 -70l-325 -292q-68 -66 -118.5 -14t17.5 118z" />
    <glyph glyph-name="L" unicode="L" horiz-adv-x="1246" 
d="M681 1350q0 -72 -99 -103t-98 -83v-1019h436q86 0 101 72q74 175 156 164l-67 -346q-8 -35 -49 -35h-1041q0 72 99.5 98t97.5 89v976q0 50 -98.5 83t-98.5 104h661z" />
    <glyph glyph-name="M" unicode="M" horiz-adv-x="1924" 
d="M1495 1350h402q0 -69 -99 -97.5t-99 -92.5v-981q3 -56 101 -83t98 -96h-661q0 72 99.5 97.5t94.5 83.5v1107q6 62 64 62zM945 28q-13 -28 -44 -28t-45 29l-617 1158q-54 55 -136.5 73t-82.5 90h401q53 0 78 -53l468 -895l252 472q52 88 119.5 51.5t19.5 -124.5zM380 189
q-2 -60 101.5 -90.5t103.5 -98.5h-565q0 72 103 101t103 86l1 603q0 100 76.5 100t76.5 -100v-601z" />
    <glyph glyph-name="N" unicode="N" horiz-adv-x="1654" 
d="M1418 41q-10 -41 -42 -41h-49l-865 946h-11v-760q0 -49 103.5 -82t103.5 -104h-562q0 71 101 103t101 86v911q0 113 -139 144t-139 103h401q40 0 66 -39l908 -1016q23 -26 23 -63v-188zM1259 1160q2 60 -102 90t-104 100h568q0 -72 -103.5 -101.5t-103.5 -86.5v-566
q-1 -100 -78 -100t-77 100v564z" />
    <glyph glyph-name="O" unicode="O" horiz-adv-x="1585" 
d="M800 1304q0 -69 -86 -73q-311 -42 -328 -565q0 -506 407 -550q399 10 410 540q0 495 -251 553q-57 23 -47 83q16 74 111 49q159 -47 289 -173q210 -205 210 -515q0 -269 -210 -473t-507 -204q-299 0 -508.5 204t-209.5 483q0 300 210 505q192 176 431 200q79 2 79 -64z
" />
    <glyph glyph-name="P" unicode="P" horiz-adv-x="1220" 
d="M676 711q162 26 168 259q0 216 -237 236h-113v-1021q0 -61 97.5 -88t97.5 -97h-669q0 72 98 99.5t98 86.5v990q0 48 -98 75.5t-98 99.5h597q494 0 537 -376q0 -385 -484 -397q-76 2 -76 67q3 66 82 66z" />
    <glyph glyph-name="Q" unicode="Q" horiz-adv-x="1594" 
d="M1065 -12l221 -254q70 -64 34 -104.5t-106 24.5l-390 326q-27 20 -27 60q0 68 86 72q281 42 329 444v164q-25 483 -379 510h-50q-266 0 -369 -306q-24 -108 -21 -245q0 -446 252 -545q56 -23 47 -82q-16 -75 -112 -51q-159 48 -290 175q-210 205 -210 495t210.5 494.5
t508.5 204.5q299 0 509.5 -204.5t210.5 -494.5t-211 -495q-106 -111 -216 -155q-33 -14 -27 -33z" />
    <glyph glyph-name="R" unicode="R" horiz-adv-x="1323" 
d="M575 575q-24 23 -92 23v-412q0 -66 98 -90t98 -96h-659q0 72 98.5 98t97.5 88v738q-1 175 133 175t134 -175v-192h73q332 0 319 258q0 197 -206 215h-424q-57 0 -141 36.5t-84 108.5h597q546 0 567 -360q0 -247 -309 -341q-6 -23 12 -51l577 -818q55 -73 -1.5 -115.5
t-111.5 31.5z" />
    <glyph glyph-name="S" unicode="S" 
d="M496 1208q-179 0 -179 -148q0 -127 466 -337q267 -141 277 -346q0 -360 -436 -377q-259 0 -416 70q-25 -70 -99 -70v485q70 0 98 -87t51 -120q89 -139 376 -139q178 20 178 158v10q0 146 -465 346q-257 127 -257 337q11 304 346 347q230 11 396 -64q71 -38 44 -98
q-30 -64 -114 -25q-123 56 -266 58z" />
    <glyph glyph-name="T" unicode="T" horiz-adv-x="1374" 
d="M823 185q-1 -57 97 -85t98 -100h-669q0 72 97.5 96t97.5 90v1122q0 42 40 42h199q40 0 40 -42v-1123zM358 1199h-91q-73 -5 -92 -107.5t-105 -102.5v322q0 39 42 39h234q98 0 98 -75q0 -71 -86 -76zM1264 1350q42 0 42 -37v-324q-73 0 -101.5 107t-100.5 107h-86
q-95 0 -95 73.5t95 73.5h246z" />
    <glyph glyph-name="U" unicode="U" horiz-adv-x="1619" 
d="M704 1350q0 -72 -99 -98.5t-110 -99.5v-722q1 -298 343 -312q393 0 393 332v713q0 55 -99.5 85t-99.5 102h562q0 -72 -98 -101.5t-99 -95.5v-702q-10 -452 -539 -479h-73q-451 0 -538 374q-20 100 -20 278v519q0 77 -98.5 106t-98.5 101h674z" />
    <glyph glyph-name="V" unicode="V" horiz-adv-x="1576" 
d="M816 0h-6q-29 0 -40 21l-553 1154q-11 47 -105 75.5t-94 99.5h632q-1 -71 -90 -97t-74 -55l451 -950q11 -23 1 -45l-86 -180q-10 -23 -36 -23zM1215 1200q12 28 -77.5 54.5t-89.5 95.5h507q0 -64 -72.5 -89t-82.5 -53l-339 -735q-41 -90 -109.5 -58.5t-26.5 121.5z" />
    <glyph glyph-name="W" unicode="W" horiz-adv-x="1954" 
d="M742 48q-16 -44 -52 -48q-34 0 -54 49l-456 1138q-21 50 -90.5 76t-69.5 87h578q0 -61 -74 -89t-58 -73l285 -731l77 200q36 95 106.5 68t34.5 -122zM2020 1593l-590 -1541q-18 -52 -66 -52q-49 0 -66 50l-435 1117q-20 63 -107 88.5t-87 94.5h609q2 -67 -78 -92.5
t-74 -80.5l279 -719l468 1169q35 92 105 65q61 -24 42 -99z" />
    <glyph glyph-name="X" unicode="X" horiz-adv-x="1547" 
d="M829 867l278 324q20 49 -64 67.5t-85 93.5h568q-2 -76 -91 -92.5t-129 -73.5l-384 -453l667 -963q56 -73 0.5 -116t-112.5 30l-1236 1515q-39 37 -124.5 61t-85.5 92h715q0 -72 -81.5 -92.5t-68.5 -55.5zM428 165q-31 -47 55 -70.5t88 -94.5h-571q2 70 84.5 92t116.5 57
l322 368q62 78 124.5 26t0.5 -120z" />
    <glyph glyph-name="Y" unicode="Y" horiz-adv-x="1589" 
d="M909 650q22 -27 18 -73v-391q-1 -52 97 -83t98 -103h-659q0 72 97.5 100.5t97.5 86.5v379l-463 623q-26 49 -98.5 70t-76.5 90h662q-1 -70 -92.5 -96t-64.5 -69zM1167 1173q10 59 -74 82t-84 94h556q1 -68 -84 -95t-125 -86l-286 -383q-54 -74 -111 -33t-3 116z" />
    <glyph glyph-name="Z" unicode="Z" horiz-adv-x="1293" 
d="M458 1348v1h785q33 0 33 -41l-964 -1276q-21 -32 -64 -32h-186q-42 0 -42 52l844 1122v21h-494q-62 0 -100.5 -104.5t-113.5 -104.5l15 220q0 142 109 142h178zM557 0q-94 0 -94 72t94 72h489q58 0 95.5 115t118.5 115l-17 -240q0 -134 -103 -134h-583z" />
    <glyph glyph-name="bracketleft" unicode="[" horiz-adv-x="666" 
d="M203 1560h330q102 0 102 -82q0 -72 -102 -72h-207v-1463h216q93 0 93 -71q0 -73 -93 -73h-349q-93 0 -93 103v1555q0 103 103 103z" />
    <glyph glyph-name="backslash" unicode="\" horiz-adv-x="636" 
d="M134 1347q496 -1265 496 -1321q0 -20 -59 -30l-50 10q-39 35 -517 1340q60 40 130 1z" />
    <glyph glyph-name="bracketright" unicode="]" horiz-adv-x="666" 
d="M565 1457v-1555q0 -103 -93 -103h-349q-93 0 -93 73q0 71 93 71h216v1463h-207q-102 0 -102 72q0 82 102 82h330q103 0 103 -103z" />
    <glyph glyph-name="asciicircum" unicode="^" horiz-adv-x="1160" 
d="M599 1360q20 -2 28 -20l437 -667q5 -24 -17 -26h-87q-33 -2 -48 20l-321 466h-17l-321 -466q-15 -22 -48 -20h-87q-22 2 -17 26l437 667q8 18 28 20h33z" />
    <glyph glyph-name="underscore" unicode="_" horiz-adv-x="975" 
d="M6 -268h988q93 0 93 -83q-14 -61 -91 -61h-1001q-82 0 -82 73q0 71 93 71z" />
    <glyph glyph-name="grave" unicode="`" horiz-adv-x="464" 
d="M229 1352q35 0 49 -43l81 -254q0 -34 -35 -34q-31 0 -58 34l-211 225q-21 19 -26 40q0 31 35 32h165z" />
    <glyph glyph-name="a" unicode="a" horiz-adv-x="1057" 
d="M353 1q-259 22 -263 247q1 242 504 384q31 7 31 41q0 173 -133 173h-11q-103 0 -103 -114q-6 -134 -133 -134q-109 0 -114 124q0 238 381 247q350 0 350 -299v-484q8 -68 80 -86t85 -99h-257q-131 14 -145 103v382q0 30 -31 26q-257 -62 -257 -192q-1 -129 118 -134
q39 4 64 -33q44 -65 -40 -122q-49 -31 -126 -30z" />
    <glyph glyph-name="b" unicode="b" horiz-adv-x="1155" 
d="M696 958q330 -10 382 -443v-11q-14 -447 -452 -504h-60q-369 11 -384 155v1012q2 64 -75 91t-77 93h337q51 -15 51 -72v-1084q76 -82 165 -82h31q183 0 216 299v41q0 221 -154 289q-42 12 -85 10q-41 4 -63 49q-32 84 69 135q46 20 99 22z" />
    <glyph glyph-name="c" unicode="c" horiz-adv-x="1001" 
d="M542 989q390 2 403 -203q0 -136 -138 -149q-171 0 -171 193q-38 33 -139 20q-166 -44 -180 -299q10 -352 244 -352h85q140 0 247 214h9q64 0 64 -54q-113 -384 -438 -384h-9q-442 0 -449 513q14 466 472 501z" />
    <glyph glyph-name="d" unicode="d" horiz-adv-x="1155" 
d="M490 1v-1q-369 0 -420 447q0 335 304 477q179 75 331 18q25 -9 25 24v212q0 63 -61.5 84t-66.5 89h310q51 -15 51 -71v-1096q0 -71 75.5 -93t76.5 -91h-324q-61 0 -61 61v599q0 143 -163 172h-50q-148 0 -183 -274v-91q0 -232 197 -292q18 -5 35 -6q36 3 58 -30
q41 -59 -36 -110q-38 -25 -98 -28z" />
    <glyph glyph-name="e" unicode="e" horiz-adv-x="1035" 
d="M701 711q-22 149 -180 149q-208 -7 -215 -364q6 -299 246 -299q267 0 353 214q66 -1 76 -54q-40 -332 -430 -386h-21q-456 0 -460 493q25 525 493 525q393 0 418 -375q0 -65 -97 -65h-393q-83 1 -83 64.5t83 64.5h174q36 0 36 33z" />
    <glyph glyph-name="f" unicode="f" horiz-adv-x="799" 
d="M777.5 1344q158.5 -21 168.5 -148q-3 -140 -149 -140q-128 0 -140 150q-30 30 -99 20q-60 -11 -70 -110v-178q0 -31 30 -31h109q100 0 100 -69q0 -71 -89 -71h-115q-35 0 -35 -33v-554q0 -55 99.5 -81t99.5 -99h-608q0 70 85.5 95t84.5 89v552q0 31 -35 31h-55
q-89 0 -89 80q9 60 99 60h50q30 0 30 29q0 289 279 399q91 30 249.5 9z" />
    <glyph glyph-name="g" unicode="g" horiz-adv-x="1078" 
d="M644 314l-30 -8q-71 -17 -90 35q-10 52 42 73q93 39 93 193q2 247 -156 247q-164 0 -164 -216q0 -142 55 -198q29 -24 29 -61q0 -58 -62 -76q-31 -10 -42 -45q-10 -32 20 -42q512 0 608 -82q83 -61 83 -176q0 -337 -536 -360h-62q-412 19 -412 206v21q0 19 16 49
q55 107 140 66q52 -26 53 -78q21 -75 274 -78h95q237 0 287 123v31q0 62 -244 58t-343 11q-195 39 -195 147q0 90 124 186v20q-135 129 -135 268q0 324 422 340q136 0 247 -62h196q82 -5 82 -83q0 -71 -133 -71h-21q17 -38 21 -145q0 -208 -262 -293z" />
    <glyph glyph-name="h" unicode="h" horiz-adv-x="1216" 
d="M461 164q0 -58 67 -74.5t77 -89.5h-526q0 60 67 87t68 77v1010q-1 61 -72.5 81.5t-71.5 95.5h329q62 0 62 -93v-1094zM750 958q254 0 267 -330v-453q0 -68 72 -85t72 -90h-535q0 67 76.5 90t77.5 85v546q-17 70 -109 57q-81 -17 -103 51q-25 78 77 111q55 18 105 18z" />
    <glyph glyph-name="i" unicode="i" horiz-adv-x="584" 
d="M298 1351q134 -4 134 -134q0 -123 -134 -124q-136 0 -144 124q0 126 144 134zM360 968q61 0 61 -73v-741q0 -45 67.5 -66t67.5 -88h-526q0 63 72 88.5t72 86.5v635q0 52 -72 72t-72 86h330z" />
    <glyph glyph-name="j" unicode="j" horiz-adv-x="627" 
d="M435 970q52 -15 52 -72v-857q-19 -453 -402 -453q-204 0 -216 104v30q20 103 102 103h11q111 0 196 -93q51 0 62 42v1038q-2 50 -73.5 70.5t-71.5 87.5h340zM348 1351q134 -4 134 -134q0 -123 -134 -124q-136 0 -144 124q0 126 144 134z" />
    <glyph glyph-name="k" unicode="k" horiz-adv-x="1237" 
d="M729 823q14 15 23 27q11 23 -29.5 41.5t-44.5 77.5h501q-1 -69 -80 -85t-101 -34q-63 -38 -166 -124l-23 -22q-68 -63 -116 -11.5t19 114.5zM504 410q-25 13 -29 -8v-219q0 -67 80.5 -89t79.5 -94h-565q0 67 79.5 92t79.5 88v1008q-2 52 -79.5 71.5t-79.5 90.5h341
q64 0 64 -76v-615q0 -35 36 -35h60q75 0 116 -43l636 -806q54 -75 -3 -116t-111 33z" />
    <glyph glyph-name="l" unicode="l" horiz-adv-x="623" 
d="M372 1350q64 0 64 -66v-1104q0 -63 73 -87t75 -93h-544q0 68 69.5 93t69.5 79v1006q0 61 -74.5 82t-74.5 90h342z" />
    <glyph glyph-name="m" unicode="m" horiz-adv-x="1800" 
d="M462 177q0 -64 72.5 -83.5t82.5 -93.5h-536q0 67 67 87.5t67 87.5v629q-2 52 -72 74.5t-73 89.5h331q61 0 61 -64v-727zM676 956q35 8 75 12q249 0 289 -292v-500q0 -68 71.5 -86.5t73.5 -89.5h-537q0 72 72 88t73 88v480q0 89 -73 125h-63q-59 -8 -82 48q-31 74 66 114
l34 14zM1196 934l1 6q67 28 132 28q252 0 279 -303v-487q0 -71 71 -89t72 -89h-535q0 73 77 92t77 85v427q0 177 -103 177h-41q-22 0 -44 -5q-48 -7 -71 39q-33 66 53 109l30 15z" />
    <glyph glyph-name="n" unicode="n" horiz-adv-x="1246" 
d="M462 177q0 -64 72.5 -83.5t82.5 -93.5h-536q0 67 67 87.5t67 87.5v629q-2 52 -72 74.5t-73 89.5h331q61 0 61 -64v-727zM676 956q35 8 75 12q249 0 289 -292v-500q0 -68 71.5 -86.5t73.5 -89.5h-537q0 72 72 88t73 88v480q0 89 -73 125h-63q-59 -8 -82 48q-31 74 66 114
l34 14z" />
    <glyph glyph-name="o" unicode="o" 
d="M434 917q55 -61 -10 -131q-83 -78 -83 -315q8 -338 241 -348q230 28 230 359q0 312 -172 361q-70 8 -70 72q1 81 110 66q383 -58 393 -499q-13 -507 -491 -507q-500 0 -512 518q20 357 264 446q56 25 100 -22z" />
    <glyph glyph-name="p" unicode="p" 
d="M650 130q160 41 160 362q0 270 -170 283q-175 0 -220 -110v-859q0 -70 74.5 -90.5t76.5 -90.5h-551q0 70 74.5 90t84.5 92v989q-9 59 -74 84.5t-65 89.5h330q50 -6 50 -53q0 -40 22 -23q101 74 238 74q368 0 380 -475q-16 -479 -417 -494h-38q-86 0 -86 66t86 66z" />
    <glyph glyph-name="q" unicode="q" horiz-adv-x="1130" 
d="M532 5q-35 -5 -73 -5q-352 0 -379 414q0 518 450 554q149 0 259 -61l110 61q60 0 60 -91v-1078q0 -59 70 -80.5t70 -90.5h-519q0 67 69.5 89t69.5 82v917q0 104 -179 111q-220 -23 -220 -343q0 -293 188 -310q111 0 111 -85q0 -75 -87 -84z" />
    <glyph glyph-name="r" unicode="r" horiz-adv-x="863" 
d="M411 968q62 -10 62 -74l-1 -30q99 104 207 104q148 0 165 -146q0 -114 -124 -124q-102 0 -144 73q-94 0 -103 -135v-460q0 -59 82 -80.5t83 -95.5h-558q0 64 72 89t73 86v614q-1 62 -78 86t-77 93h341z" />
    <glyph glyph-name="s" unicode="s" horiz-adv-x="850" 
d="M167 55q-20 -55 -77 -55v378q54 0 76 -68t40 -93q5 -8 11 -15q74 -79 202 -79q139 5 139 89v21q0 88 -262 209q-216 94 -216 254q0 248 309 272q155 0 248 -52q18 52 72 52v-354q-51 0 -71.5 63.5t-37.5 87.5q-11 17 -27 31q-74 41 -164 41h-39q-101 -5 -101 -81
q0 -103 237 -185q272 -123 272 -278q0 -267 -359 -292q-141 1 -212 36q-21 8 -40 18z" />
    <glyph glyph-name="t" unicode="t" horiz-adv-x="687" 
d="M365 1264q61 0 61 -55v-205q0 -34 31 -34h116q73 0 73 -64q0 -73 -93 -73h-93q-34 0 -34 -32v-580q2 -61 95 -31q55 74 104 74q31 -6 42 -32q0 -210 -261 -232q-228 12 -229 274v527q0 32 -32 32h-32q-83 0 -83 62q3 60 159 124q89 55 153 217q6 25 23 28z" />
    <glyph glyph-name="u" unicode="u" horiz-adv-x="1241" 
d="M792 803q0 52 -72 74t-72 92h319q73 0 73 -74v-706q1 -71 72.5 -96t71.5 -93h-331q-61 8 -61 75v728zM514 0q-269 0 -279 304v487q0 63 -82 83t-83 95h340q62 0 62 -63v-541q0 -171 125 -177q69 6 91 -58q28 -85 -82 -121q-33 -8 -92 -9z" />
    <glyph glyph-name="v" unicode="v" horiz-adv-x="1138" 
d="M684 156l-51 -112q-20 -44 -53 -44t-53 41l-363 771q-21 51 -82.5 71.5t-61.5 84.5h516q0 -67 -67 -91t-37 -75l252 -574q16 -37 0 -72zM838 832q19 32 -44 52t-63 84h382q-9 -65 -55 -83.5t-69 -57.5l-175 -386q-31 -77 -90.5 -53t-27.5 102z" />
    <glyph glyph-name="w" unicode="w" horiz-adv-x="1615" 
d="M697 816q-8 39 -78.5 63.5t-72.5 90.5h516q0 -66 -72 -91t-52 -56l191 -464l182 459q20 46 -37 68t-57 84h372q0 -57 -50.5 -79t-63.5 -57l-350 -801q-15 -33 -46 -33q-30 0 -45 31zM561 33q-14 -33 -43 -33q-28 0 -42 36l-348 799q-15 35 -61.5 58.5t-46.5 76.5h464
q0 -55 -53.5 -80t-38.5 -56l183 -479l50 89q44 80 105.5 46t17.5 -114z" />
    <glyph glyph-name="x" unicode="x" horiz-adv-x="1065" 
d="M349 150q-27 -51 25.5 -67.5t59.5 -82.5h-384q0 57 52.5 84t97.5 88l115 148q55 68 107 26t-3 -110zM599 677l128 165q23 27 -28.5 47t-51.5 79h394q-4 -63 -59 -82t-64 -40l-233 -294l529 -768q58 -71 3.5 -115.5t-112.5 26.5l-906 1120q-33 47 -93.5 67.5t-65.5 85.5
h533q0 -59 -55.5 -80t-29.5 -50z" />
    <glyph glyph-name="y" unicode="y" horiz-adv-x="1177" 
d="M742 160l-203 -438q-78 -152 -296 -152q-171 0 -180 141q0 113 149 129q100 -2 159 -33q75 0 171 268l-397 745q-25 44 -75 69t-50 79h522q0 -63 -72.5 -88.5t-57.5 -61.5l328 -601q14 -28 2 -57zM730 493l132 332q15 39 -36.5 58t-60.5 85h393q-1 -57 -47.5 -78.5
t-63.5 -62.5l-176 -382l-3 -7q-37 -89 -106 -60q-68 28 -32 115z" />
    <glyph glyph-name="z" unicode="z" horiz-adv-x="1001" 
d="M301 829q-90 0 -114 -90.5t-103 -90.5v264q0 55 56 55h763q74 0 74 -63l-36 -45q-24 -30 -64 -30h-576zM378 158q-17 -20 16 -20h342q104 0 119 103.5t111 109.5v-303q0 -47 -56 -48h-855q-35 0 -35 36q0 56 52 109l466 557q91 111 176 41.5t-6 -180.5z" />
    <glyph glyph-name="braceleft" unicode="{" horiz-adv-x="790" 
d="M720 1636q53 -6 53 -63q0 -32 -159 -85q-75 -64 -75 -117v-64l43 -277q0 -175 -245 -340q245 -146 245 -340l-43 -266v-64q0 -105 234 -180v-22q0 -45 -42 -63q-416 16 -436 404l53 287v42q0 112 -234 170l-11 32q0 47 170 96q85 55 75 159l-53 277q0 252 340 393
q33 4 85 21z" />
    <glyph glyph-name="bar" unicode="|" horiz-adv-x="382" 
d="M200 1606q75 0 75 -106v-1669q0 -106 -96 -106q-74 0 -74 106v1669q0 106 95 106z" />
    <glyph glyph-name="braceright" unicode="}" horiz-adv-x="790" 
d="M161 1615q340 -141 340 -393l-53 -277q-10 -104 75 -159q170 -49 170 -96l-11 -32q-234 -58 -234 -170v-42l53 -287q-20 -388 -436 -404q-42 18 -42 63v22q234 75 234 180v64l-43 266q0 194 245 340q-245 165 -245 340l43 277v64q0 53 -75 117q-159 53 -159 85
q0 57 53 63q52 -17 85 -21z" />
    <glyph glyph-name="asciitilde" unicode="~" horiz-adv-x="1280" 
d="M866 570q221 -51 278 153l43 11q53 -7 53 -64q-5 -213 -196 -278q-199 -62 -630 175q-189 37 -280 -163l-42 -11q-28 0 -53 53q9 168 170 256q208 104 657 -132z" />
    <glyph glyph-name="exclamdown" unicode="&#xa1;" horiz-adv-x="477" 
d="M244 -382q-137 0 -145 141q88 842 124 842h34q40 0 126 -844q-6 -130 -139 -139zM241 968q55 0 93.5 -38.5t38.5 -92.5q0 -55 -38.5 -93.5t-93.5 -38.5t-93.5 38.5t-38.5 93.5q0 54 38.5 92.5t93.5 38.5z" />
    <glyph glyph-name="cent" unicode="&#xa2;" horiz-adv-x="1048" 
d="M561 833h-31q-194 -31 -194 -314q9 -291 234 -309h73q142 0 234 194l11 11h9q62 -7 62 -31q-30 -366 -419 -388q-100 0 -153 20l-144 -348q-31 -20 -71.5 -13.5t-40.5 54.5l137 355q-168 127 -168 412q0 462 470 491h42l133 338q40 30 86 25t57 -46l-133 -348
q184 -60 184 -184q0 -128 -133 -143q-108 6 -143 92l-106 -265q-30 -82 -93.5 -59.5t-33.5 105.5z" />
    <glyph glyph-name="sterling" unicode="&#xa3;" horiz-adv-x="1065" 
d="M50 148q0 161 161 177q61 2 87 -8v79l-10 219h-99q-100 0 -100 79t70 79h119l-10 149q0 382 367 427q317 -8 317 -229q-14 -99 -118 -99q-103 0 -110 159q-19 49 -109 39q-91 0 -109 -129q0 -197 10 -317h189q69 0 69 -69v-20q0 -69 -90 -69h-168q0 -200 -40 -338
q199 -59 328 -49q80 0 119 98q26 41 58 41t42 -50q-1 -310 -328 -317q-122 0 -414 182q-82 36 -102 -4q-13 -50 19 -56q46 -11 48 -58q0 -65 -75 -65q-119 3 -121 149z" />
    <glyph glyph-name="yen" unicode="&#xa5;" horiz-adv-x="1233" 
d="M575 1350q-11 -71 -76 -88t-48 -46l198 -462l207 451q17 32 -44 57t-62 88h423q-6 -63 -63 -86t-70 -59l-248 -493h309q72 0 72 -73q0 -72 -92 -72h-341v-93h361q72 0 72 -72t-92 -72h-341v-156q0 -61 87 -81t89 -93h-609q0 74 87.5 94t87.5 83v153h-349q-83 0 -83 73
q4 71 82 71h350v93h-349q-83 0 -83 72q4 73 82 73h287l-224 488q-21 42 -82.5 63.5t-62.5 86.5h525z" />
    <glyph glyph-name="brokenbar" unicode="&#xa6;" horiz-adv-x="378" 
d="M215 1606q54 -14 54 -74v-648q0 -75 -85 -75q-75 0 -75 96v606q0 95 106 95zM205 522q64 0 64 -74v-649q0 -74 -75 -74q-85 0 -85 95v606q0 96 96 96z" />
    <glyph glyph-name="section" unicode="&#xa7;" horiz-adv-x="971" 
d="M178 1176q0 277 329 298q304 0 319 -234q0 -127 -117 -138q-117 15 -117 106q20 74 0 128q-32 32 -85 32q-126 0 -138 -105v-45q0 -109 340 -329q202 -146 202 -319q0 -108 -56 -198q-46 -79 -108 -45q-53 29 -30 91q14 32 13 78q-10 127 -340 340q-212 162 -212 340z
M259 717q-7 -24 -7 -51q0 -145 351 -362q193 -123 202 -318q0 -290 -319 -309h-32q-298 4 -298 255q0 106 117 117q99 -8 117 -117l-10 -95v-22q10 -31 64 -31h31q124 0 149 127q0 124 -297 308q-256 159 -256 373q0 95 52 181q48 83 112 46q56 -34 24 -102z" />
    <glyph glyph-name="dieresis" unicode="&#xa8;" horiz-adv-x="863" 
d="M241 1366q138 -4 138 -139q0 -119 -138 -129q-140 4 -140 129q0 131 140 139zM621 1366q138 -4 138 -139q0 -119 -138 -129q-140 4 -140 129q0 131 140 139z" />
    <glyph glyph-name="copyright" unicode="&#xa9;" horiz-adv-x="1662" 
d="M1169 1144q-148 92 -336 92q-254 0 -433.5 -165t-179.5 -398q0 -234 179.5 -398.5t433.5 -164.5q253 0 432.5 164.5t179.5 398.5q0 233 -179 398q-30 27 -62 50l46 -275q-51 -11 -111 96q-83 113 -299 113q-260 0 -264 -382q0 -331 263 -369q239 0 376 174h7
q32 -14 35 -28v-14q-143 -236 -417 -236q-451 23 -472 438v34q21 449 465 473q156 0 278 -56h14q6 50 44 55zM833 -1q-304 0 -518.5 197.5t-214.5 476.5t214.5 476t518.5 197q303 0 517.5 -197t214.5 -476t-214.5 -476.5t-517.5 -197.5z" />
    <glyph glyph-name="registered" unicode="&#xae;" horiz-adv-x="1658" 
d="M401 1072q-1 0 -1 -1q-180 -165 -180 -398q0 -234 180 -398q4 -5 9 -9q4 1 9 3q68 18 68 61v515q-1 123 92.5 123t93.5 -123v-134h51q232 0 223 181q0 137 -144 150h-282q-38 -3 -104 24q-8 3 -15 6zM498 200q147 -90 335 -90q157 0 286 63l-369 429q-16 16 -78 16v-288
q0 -46 68.5 -63t68.5 -67h-311zM1195 85q-162 -86 -362 -86q-304 0 -518.5 197.5t-214.5 476.5t214.5 476t518.5 197q303 0 517.5 -197t214.5 -476t-214 -476q-31 -29 -63 -53l69 -98q39 -50 -0.5 -80t-78.5 22zM1222 238q22 17 44 37q179 164 179 398q0 233 -179.5 398
t-432.5 165q-191 0 -339 -93h272q381 0 396 -251q0 -173 -216 -239q-4 -16 8 -35z" />
    <glyph glyph-name="plusminus" unicode="&#xb1;" horiz-adv-x="1185" 
d="M522 250v354h-401q-88 0 -88 79q0 68 98 68h391v352q0 88 78 88q69 0 69 -88v-352h402q87 0 87 -68v-11q0 -68 -68 -68h-421v-354h402q89 0 89 -83q-13 -61 -87 -61h-957q-78 0 -78 73q0 71 89 71h395z" />
    <glyph glyph-name="acute" unicode="&#xb4;" horiz-adv-x="460" 
d="M394 1352q35 -1 35 -32q-5 -21 -26 -40l-211 -225q-27 -34 -58 -34q-35 0 -35 34l81 254q14 43 49 43h165z" />
    <glyph glyph-name="paragraph" unicode="&#xb6;" horiz-adv-x="1024" 
d="M929 1435v-90h-107v-1345h-102v1345h-146v-1345h-104v718q-184 8 -290.5 102.5t-106.5 255.5q0 167 112.5 263t300.5 96h443z" />
    <glyph glyph-name="periodcentered" unicode="&#xb7;" horiz-adv-x="481" 
d="M240 966q138 -4 138 -139q0 -109 -138 -129q-140 14 -140 129q0 131 140 139z" />
    <glyph glyph-name="periodcentered" unicode="&#x2219;" horiz-adv-x="481" 
d="M240 966q138 -4 138 -139q0 -109 -138 -129q-140 14 -140 129q0 131 140 139z" />
    <glyph glyph-name="cedilla" unicode="&#xb8;" horiz-adv-x="524" 
d="M253 23h46q45 0 32 -40l-8 -24q106 -55 106 -149q0 -201 -276 -212q-122 0 -128 53q0 64 74 67q107 0 107 57q0 41 -53 49t-43 50q89 149 143 149z" />
    <glyph glyph-name="questiondown" unicode="&#xbf;" horiz-adv-x="1001" 
d="M507 -382q-393 4 -407 318q4 233 170 354q173 106 176 192v55q0 64 71 64q69 0 69 -67v-83q-5 -128 -117 -262t-112 -243q9 -209 189 -209h20q109 0 109 100q-19 40 -40 79q0 139 129 149q132 -10 139 -139q0 -299 -396 -308zM516 701q-138 0 -149 128q0 135 149 139
q129 -1 139 -129q-3 -135 -139 -138z" />
    <glyph glyph-name="Agrave" unicode="&#xc0;" horiz-adv-x="1563" 
d="M353 162q-26 -47 65 -69t91 -93h-489q0 61 64.5 82t102.5 90l339 701q39 83 102.5 53t24.5 -113zM896 554l-248 534q-12 28 2 52l88 189q17 21 41 21t39 -26l562 -1179q17 -32 87 -56.5t70 -88.5h-601q0 61 74 86.5t67 75.5l-117 251h-261q-92 -3 -92 67.5t92 73.5h197z
M689 1834q35 0 49 -43l81 -254q0 -34 -35 -34q-31 0 -58 34l-211 225q-21 19 -26 40q0 31 35 32h165z" />
    <glyph glyph-name="Aacute" unicode="&#xc1;" horiz-adv-x="1563" 
d="M353 162q-26 -47 65 -69t91 -93h-489q0 61 64.5 82t102.5 90l339 701q39 83 102.5 53t24.5 -113zM896 554l-248 534q-12 28 2 52l88 189q17 21 41 21t39 -26l562 -1179q17 -32 87 -56.5t70 -88.5h-601q0 61 74 86.5t67 75.5l-117 251h-261q-92 -3 -92 67.5t92 73.5h197z
M1034 1834q35 -1 35 -32q-5 -21 -26 -40l-211 -225q-27 -34 -58 -34q-35 0 -35 34l81 254q14 43 49 43h165z" />
    <glyph glyph-name="Acircumflex" unicode="&#xc2;" horiz-adv-x="1563" 
d="M353 162q-26 -47 65 -69t91 -93h-489q0 61 64.5 82t102.5 90l339 701q39 83 102.5 53t24.5 -113zM896 554l-248 534q-12 28 2 52l88 189q17 21 41 21t39 -26l562 -1179q17 -32 87 -56.5t70 -88.5h-601q0 61 74 86.5t67 75.5l-117 251h-261q-92 -3 -92 67.5t92 73.5h197z
M825 1831q64 0 246 -311q0 -28 -38 -37q-27 0 -246 169h-19q-207 -169 -244 -169q-31 9 -37 37q184 311 244 311h94z" />
    <glyph glyph-name="Atilde" unicode="&#xc3;" horiz-adv-x="1563" 
d="M353 162q-26 -47 65 -69t91 -93h-489q0 61 64.5 82t102.5 90l339 701q39 83 102.5 53t24.5 -113zM896 554l-248 534q-12 28 2 52l88 189q17 21 41 21t39 -26l562 -1179q17 -32 87 -56.5t70 -88.5h-601q0 61 74 86.5t67 75.5l-117 251h-261q-92 -3 -92 67.5t92 73.5h197z
M643 1833q48 0 330 -134q51 0 82 124l31 10q65 -2 52 -72q-37 -238 -238 -238q-68 0 -308 125h-31q-26 0 -63 -114q-23 -16 -52.5 -8.5t-29.5 39.5q21 268 227 268z" />
    <glyph glyph-name="Adieresis" unicode="&#xc4;" horiz-adv-x="1563" 
d="M353 162q-26 -47 65 -69t91 -93h-489q0 61 64.5 82t102.5 90l339 701q39 83 102.5 53t24.5 -113zM896 554l-248 534q-12 28 2 52l88 189q17 21 41 21t39 -26l562 -1179q17 -32 87 -56.5t70 -88.5h-601q0 61 74 86.5t67 75.5l-117 251h-261q-92 -3 -92 67.5t92 73.5h197z
M590 1838q138 -4 138 -139q0 -119 -138 -129q-140 4 -140 129q0 131 140 139zM970 1838q138 -4 138 -139q0 -119 -138 -129q-140 4 -140 129q0 131 140 139z" />
    <glyph glyph-name="Aring" unicode="&#xc5;" horiz-adv-x="1563" 
d="M353 162q-26 -47 65 -69t91 -93h-489q0 61 64.5 82t102.5 90l339 701q39 83 102.5 53t24.5 -113zM896 554l-248 534q-12 28 2 52l88 189q17 21 41 21t39 -26l562 -1179q17 -32 87 -56.5t70 -88.5h-601q0 61 74 86.5t67 75.5l-117 251h-261q-92 -3 -92 67.5t92 73.5h197z
M592 1586q-14 31 -14 67q0 75 58.5 128t141.5 53h1q83 0 141.5 -53t58.5 -128q0 -36 -14 -67q-3 -7 -7 -14q-9 -15 -21 -29q-54 -53 -95 -11q-39 39 7 88q3 5 5 10h-1q4 10 4 23q0 30 -23 51t-55 21q-33 0 -56 -21t-23 -51q0 -13 4 -23h-1q2 -5 5 -10q46 -49 7 -88
q-41 -42 -95 11q-12 14 -21 29q-4 7 -7 14z" />
    <glyph glyph-name="AE" unicode="&#xc6;" horiz-adv-x="2019" 
d="M1515 773q134 0 134 165l11 11h51q31 -11 31 -62v-381q0 -62 -31 -62h-48l-13 13q-4 161 -135 173h-145q-93 0 -93 71.5t93 71.5h145zM711 0h-1q0 74 97.5 99t98.5 85v898h-10l-258 -443h83q95 0 95 -72.5t-95 -72.5h-165l-184 -324q-35 -50 58.5 -74t94.5 -96h-505
q0 63 56.5 84t88.5 69l607 1030q17 46 -79 70t-96 97h1166q103 0 103 -134l14 -207q-71 0 -107 98.5t-95 98.5h-466q-36 0 -36 -35v-1001q0 -36 32 -36h484q76 7 110.5 117t132.5 110l-66 -295q-16 -67 -75 -67h-1083v1z" />
    <glyph glyph-name="Ccedilla" unicode="&#xc7;" horiz-adv-x="1482" 
d="M767 1370q231 0 410 -83h21q8 79 72 83h39l74 -441q-75 -17 -164 141q-122 167 -441 167q-385 0 -390 -574q0 -478 388 -535q353 0 555 256h11q46 -19 51 -40v-21q-210 -348 -615 -348q-677 24 -698 686q21 684 687 709zM763 -7h46q45 0 32 -40l-8 -24q106 -55 106 -149
q0 -201 -276 -212q-122 0 -128 53q0 64 74 67q107 0 107 57q0 41 -53 49t-43 50q89 149 143 149z" />
    <glyph glyph-name="Egrave" unicode="&#xc8;" horiz-adv-x="1327" 
d="M827 773q134 0 134 165l11 11h51q31 -11 31 -62v-381q0 -62 -31 -62h-48l-13 13q-4 161 -135 173h-145q-93 0 -93 71.5t93 71.5h145zM488 171q0 -36 32 -36h484q76 7 110.5 117t132.5 110l-66 -295q-16 -67 -75 -67h-1083q0 72 99 97t97 88v981q1 63 -97.5 88t-98.5 97
h1052q103 0 103 -134l14 -207q-71 0 -107 98.5t-95 98.5h-466q-36 0 -36 -35v-1001zM545 1834q35 0 49 -43l81 -254q0 -34 -35 -34q-31 0 -58 34l-211 225q-21 19 -26 40q0 31 35 32h165z" />
    <glyph glyph-name="Eacute" unicode="&#xc9;" horiz-adv-x="1327" 
d="M827 773q134 0 134 165l11 11h51q31 -11 31 -62v-381q0 -62 -31 -62h-48l-13 13q-4 161 -135 173h-145q-93 0 -93 71.5t93 71.5h145zM488 171q0 -36 32 -36h484q76 7 110.5 117t132.5 110l-66 -295q-16 -67 -75 -67h-1083q0 72 99 97t97 88v981q1 63 -97.5 88t-98.5 97
h1052q103 0 103 -134l14 -207q-71 0 -107 98.5t-95 98.5h-466q-36 0 -36 -35v-1001zM890 1834q35 -1 35 -32q-5 -21 -26 -40l-211 -225q-27 -34 -58 -34q-35 0 -35 34l81 254q14 43 49 43h165z" />
    <glyph glyph-name="Ecircumflex" unicode="&#xca;" horiz-adv-x="1327" 
d="M827 773q134 0 134 165l11 11h51q31 -11 31 -62v-381q0 -62 -31 -62h-48l-13 13q-4 161 -135 173h-145q-93 0 -93 71.5t93 71.5h145zM488 171q0 -36 32 -36h484q76 7 110.5 117t132.5 110l-66 -295q-16 -67 -75 -67h-1083q0 72 99 97t97 88v981q1 63 -97.5 88t-98.5 97
h1052q103 0 103 -134l14 -207q-71 0 -107 98.5t-95 98.5h-466q-36 0 -36 -35v-1001zM681 1831q64 0 246 -311q0 -28 -38 -37q-27 0 -246 169h-19q-207 -169 -244 -169q-31 9 -37 37q184 311 244 311h94z" />
    <glyph glyph-name="Edieresis" unicode="&#xcb;" horiz-adv-x="1327" 
d="M827 773q134 0 134 165l11 11h51q31 -11 31 -62v-381q0 -62 -31 -62h-48l-13 13q-4 161 -135 173h-145q-93 0 -93 71.5t93 71.5h145zM488 171q0 -36 32 -36h484q76 7 110.5 117t132.5 110l-66 -295q-16 -67 -75 -67h-1083q0 72 99 97t97 88v981q1 63 -97.5 88t-98.5 97
h1052q103 0 103 -134l14 -207q-71 0 -107 98.5t-95 98.5h-466q-36 0 -36 -35v-1001zM446 1838q138 -4 138 -139q0 -119 -138 -129q-140 4 -140 129q0 131 140 139zM826 1838q138 -4 138 -139q0 -119 -138 -129q-140 4 -140 129q0 131 140 139z" />
    <glyph glyph-name="Igrave" unicode="&#xcc;" horiz-adv-x="704" 
d="M216 1164q0 62 -98 88t-98 98h659q0 -72 -98 -98t-98 -88v-978q0 -62 98 -88t98 -98h-659q0 72 98 98t98 88v978zM260 1834q35 0 49 -43l81 -254q0 -34 -35 -34q-31 0 -58 34l-211 225q-21 19 -26 40q0 31 35 32h165z" />
    <glyph glyph-name="Iacute" unicode="&#xcd;" horiz-adv-x="704" 
d="M216 1164q0 62 -98 88t-98 98h659q0 -72 -98 -98t-98 -88v-978q0 -62 98 -88t98 -98h-659q0 72 98 98t98 88v978zM605 1834q35 -1 35 -32q-5 -21 -26 -40l-211 -225q-27 -34 -58 -34q-35 0 -35 34l81 254q14 43 49 43h165z" />
    <glyph glyph-name="Icircumflex" unicode="&#xce;" horiz-adv-x="704" 
d="M216 1164q0 62 -98 88t-98 98h659q0 -72 -98 -98t-98 -88v-978q0 -62 98 -88t98 -98h-659q0 72 98 98t98 88v978zM396 1831q64 0 246 -311q0 -28 -38 -37q-27 0 -246 169h-19q-207 -169 -244 -169q-31 9 -37 37q184 311 244 311h94z" />
    <glyph glyph-name="Idieresis" unicode="&#xcf;" horiz-adv-x="704" 
d="M216 1164q0 62 -98 88t-98 98h659q0 -72 -98 -98t-98 -88v-978q0 -62 98 -88t98 -98h-659q0 72 98 98t98 88v978zM161 1838q138 -4 138 -139q0 -119 -138 -129q-140 4 -140 129q0 131 140 139zM541 1838q138 -4 138 -139q0 -119 -138 -129q-140 4 -140 129q0 131 140 139
z" />
    <glyph glyph-name="Eth" unicode="&#xd0;" horiz-adv-x="1628" 
d="M514 570v-407q0 -28 28 -28h168q438 0 516 474v62q0 492 -454 537h-478q-56 1 -155 36.5t-99 107.5h743q358 0 596 -226q161 -180 157 -445q0 -408 -434 -619q-191 -62 -371 -62h-690q0 70 101.5 96t103.5 91v384q0 34 -37 34h-97q-72 0 -72 73q0 71 93 71h77q36 0 36 38
v137q0 175 134 175t134 -175v-137q0 -38 34 -38h313q93 0 93 -83q-4 -61 -91 -61h-314q-35 0 -35 -35z" />
    <glyph glyph-name="Ntilde" unicode="&#xd1;" horiz-adv-x="1654" 
d="M1418 41q-10 -41 -42 -41h-49l-865 946h-11v-760q0 -49 103.5 -82t103.5 -104h-562q0 71 101 103t101 86v911q0 113 -139 144t-139 103h401q40 0 66 -39l908 -1016q23 -26 23 -63v-188zM1259 1160q2 60 -102 90t-104 100h568q0 -72 -103.5 -101.5t-103.5 -86.5v-566
q-1 -100 -78 -100t-77 100v564zM685 1833q48 0 330 -134q51 0 82 124l31 10q65 -2 52 -72q-37 -238 -238 -238q-68 0 -308 125h-31q-26 0 -63 -114q-23 -16 -52.5 -8.5t-29.5 39.5q21 268 227 268z" />
    <glyph glyph-name="Ograve" unicode="&#xd2;" horiz-adv-x="1585" 
d="M800 1304q0 -69 -86 -73q-311 -42 -328 -565q0 -506 407 -550q399 10 410 540q0 495 -251 553q-57 23 -47 83q16 74 111 49q159 -47 289 -173q210 -205 210 -515q0 -269 -210 -473t-507 -204q-299 0 -508.5 204t-209.5 483q0 300 210 505q192 176 431 200q79 2 79 -64z
M708 1834q35 0 49 -43l81 -254q0 -34 -35 -34q-31 0 -58 34l-211 225q-21 19 -26 40q0 31 35 32h165z" />
    <glyph glyph-name="Oacute" unicode="&#xd3;" horiz-adv-x="1585" 
d="M800 1304q0 -69 -86 -73q-311 -42 -328 -565q0 -506 407 -550q399 10 410 540q0 495 -251 553q-57 23 -47 83q16 74 111 49q159 -47 289 -173q210 -205 210 -515q0 -269 -210 -473t-507 -204q-299 0 -508.5 204t-209.5 483q0 300 210 505q192 176 431 200q79 2 79 -64z
M1053 1834q35 -1 35 -32q-5 -21 -26 -40l-211 -225q-27 -34 -58 -34q-35 0 -35 34l81 254q14 43 49 43h165z" />
    <glyph glyph-name="Ocircumflex" unicode="&#xd4;" horiz-adv-x="1585" 
d="M800 1304q0 -69 -86 -73q-311 -42 -328 -565q0 -506 407 -550q399 10 410 540q0 495 -251 553q-57 23 -47 83q16 74 111 49q159 -47 289 -173q210 -205 210 -515q0 -269 -210 -473t-507 -204q-299 0 -508.5 204t-209.5 483q0 300 210 505q192 176 431 200q79 2 79 -64z
M844 1831q64 0 246 -311q0 -28 -38 -37q-27 0 -246 169h-19q-207 -169 -244 -169q-31 9 -37 37q184 311 244 311h94z" />
    <glyph glyph-name="Otilde" unicode="&#xd5;" horiz-adv-x="1585" 
d="M800 1304q0 -69 -86 -73q-311 -42 -328 -565q0 -506 407 -550q399 10 410 540q0 495 -251 553q-57 23 -47 83q16 74 111 49q159 -47 289 -173q210 -205 210 -515q0 -269 -210 -473t-507 -204q-299 0 -508.5 204t-209.5 483q0 300 210 505q192 176 431 200q79 2 79 -64z
M662 1833q48 0 330 -134q51 0 82 124l31 10q65 -2 52 -72q-37 -238 -238 -238q-68 0 -308 125h-31q-26 0 -63 -114q-23 -16 -52.5 -8.5t-29.5 39.5q21 268 227 268z" />
    <glyph glyph-name="Odieresis" unicode="&#xd6;" horiz-adv-x="1585" 
d="M800 1304q0 -69 -86 -73q-311 -42 -328 -565q0 -506 407 -550q399 10 410 540q0 495 -251 553q-57 23 -47 83q16 74 111 49q159 -47 289 -173q210 -205 210 -515q0 -269 -210 -473t-507 -204q-299 0 -508.5 204t-209.5 483q0 300 210 505q192 176 431 200q79 2 79 -64z
M609 1848q138 -4 138 -139q0 -119 -138 -129q-140 4 -140 129q0 131 140 139zM989 1848q138 -4 138 -139q0 -119 -138 -129q-140 4 -140 129q0 131 140 139z" />
    <glyph glyph-name="multiply" unicode="&#xd7;" horiz-adv-x="1014" 
d="M582 561l331 -298q32 -29 5 -59l-27 -29q-27 -31 -60 -1l-339 306l-342 -307q-31 -29 -58 1l-27 31q-27 29 5 58l332 298l-333 300q-31 28 -4 58l28 30q26 30 58 1l341 -308l341 307q31 29 58 -1l27 -29q27 -31 -5 -60z" />
    <glyph glyph-name="Oslash" unicode="&#xd8;" horiz-adv-x="1559" 
d="M362 121q-128 -129 -145 -134q-40 -17 -73 0.5t-24 66.5q7 17 140 160q-180 196 -180 464q0 291 210 496q183 177 433 201q79 2 79 -64q0 -69 -86 -73q-281 -42 -329 -444v-164q0 -374 277 -502l102 -9h50q266 0 369 306l21 236v10q0 172 -38 293q-289 -308 -490 -519
l-29 -30q-67 -67 -118.5 -16.5t15.5 118.5l27 27q214 225 532 553q-59 82 -151 118q-56 24 -46 84q15 74 111 49q118 -35 220 -113q56 56 114 117q46 19 81.5 1t30.5 -73q-65 -70 -127 -136q181 -196 181 -466q0 -290 -210.5 -494.5t-508.5 -204.5q-250 0 -438 142z" />
    <glyph glyph-name="Ugrave" unicode="&#xd9;" horiz-adv-x="1619" 
d="M704 1350q0 -72 -99 -98.5t-110 -99.5v-722q1 -298 343 -312q393 0 393 332v713q0 55 -99.5 85t-99.5 102h562q0 -72 -98 -101.5t-99 -95.5v-702q-10 -452 -539 -479h-73q-451 0 -538 374q-20 100 -20 278v519q0 77 -98.5 106t-98.5 101h674zM722 1834q35 0 49 -43
l81 -254q0 -34 -35 -34q-31 0 -58 34l-211 225q-21 19 -26 40q0 31 35 32h165z" />
    <glyph glyph-name="Uacute" unicode="&#xda;" horiz-adv-x="1619" 
d="M704 1350q0 -72 -99 -98.5t-110 -99.5v-722q1 -298 343 -312q393 0 393 332v713q0 55 -99.5 85t-99.5 102h562q0 -72 -98 -101.5t-99 -95.5v-702q-10 -452 -539 -479h-73q-451 0 -538 374q-20 100 -20 278v519q0 77 -98.5 106t-98.5 101h674zM1067 1834q35 -1 35 -32
q-5 -21 -26 -40l-211 -225q-27 -34 -58 -34q-35 0 -35 34l81 254q14 43 49 43h165z" />
    <glyph glyph-name="Ucircumflex" unicode="&#xdb;" horiz-adv-x="1619" 
d="M704 1350q0 -72 -99 -98.5t-110 -99.5v-722q1 -298 343 -312q393 0 393 332v713q0 55 -99.5 85t-99.5 102h562q0 -72 -98 -101.5t-99 -95.5v-702q-10 -452 -539 -479h-73q-451 0 -538 374q-20 100 -20 278v519q0 77 -98.5 106t-98.5 101h674zM858 1831q64 0 246 -311
q0 -28 -38 -37q-27 0 -246 169h-19q-207 -169 -244 -169q-31 9 -37 37q184 311 244 311h94z" />
    <glyph glyph-name="Udieresis" unicode="&#xdc;" horiz-adv-x="1619" 
d="M704 1350q0 -72 -99 -98.5t-110 -99.5v-722q1 -298 343 -312q393 0 393 332v713q0 55 -99.5 85t-99.5 102h562q0 -72 -98 -101.5t-99 -95.5v-702q-10 -452 -539 -479h-73q-451 0 -538 374q-20 100 -20 278v519q0 77 -98.5 106t-98.5 101h674zM623 1848q138 -4 138 -139
q0 -119 -138 -129q-140 4 -140 129q0 131 140 139zM1003 1848q138 -4 138 -139q0 -119 -138 -129q-140 4 -140 129q0 131 140 139z" />
    <glyph glyph-name="Yacute" unicode="&#xdd;" horiz-adv-x="1589" 
d="M909 650q22 -27 18 -73v-391q-1 -52 97 -83t98 -103h-659q0 72 97.5 100.5t97.5 86.5v379l-463 623q-26 49 -98.5 70t-76.5 90h662q-1 -70 -92.5 -96t-64.5 -69zM1167 1173q10 59 -74 82t-84 94h556q1 -68 -84 -95t-125 -86l-286 -383q-54 -74 -111 -33t-3 116z
M1048 1834q35 -1 35 -32q-5 -21 -26 -40l-211 -225q-27 -34 -58 -34q-35 0 -35 34l81 254q14 43 49 43h165z" />
    <glyph glyph-name="Thorn" unicode="&#xde;" horiz-adv-x="1263" 
d="M680 432q170 39 176 227q0 246 -217 248h-103q-31 0 -31 -31v-692q0 -57 97.5 -84.5t97.5 -99.5h-670q0 77 97.5 99.5t98.5 84.5v981q0 62 -96 86t-100 99h670q0 -72 -96 -98.5t-99 -86.5v-82q0 -32 32 -32h132q494 0 496 -381q0 -355 -467 -381q-94 0 -94 72q0 65 76 71
z" />
    <glyph glyph-name="germandbls" unicode="&#xdf;" horiz-adv-x="1143" 
d="M582 1349q380 0 383 -325q0 -163 -127 -246v-20q206 -116 206 -383q-6 -375 -354 -375q-201 0 -206 168q1 107 99 117q98 -10 98 -98q-11 -69 19 -78q108 0 108 263q0 327 -266 336q-29 0 -39 41q0 50 50 55q176 1 176 220q0 197 -147 197q-157 0 -157 -187v-966
q0 -68 -70 -68h-295q0 65 64.5 88t64.5 60v718q0 483 393 483z" />
    <glyph glyph-name="agrave" unicode="&#xe0;" horiz-adv-x="1057" 
d="M353 1q-259 22 -263 247q1 242 504 384q31 7 31 41q0 173 -133 173h-11q-103 0 -103 -114q-6 -134 -133 -134q-109 0 -114 124q0 238 381 247q350 0 350 -299v-484q8 -68 80 -86t85 -99h-257q-131 14 -145 103v382q0 30 -31 26q-257 -62 -257 -192q-1 -129 118 -134
q39 4 64 -33q44 -65 -40 -122q-49 -31 -126 -30zM399 1452q35 0 49 -43l81 -254q0 -34 -35 -34q-31 0 -58 34l-211 225q-21 19 -26 40q0 31 35 32h165z" />
    <glyph glyph-name="aacute" unicode="&#xe1;" horiz-adv-x="1057" 
d="M353 1q-259 22 -263 247q1 242 504 384q31 7 31 41q0 173 -133 173h-11q-103 0 -103 -114q-6 -134 -133 -134q-109 0 -114 124q0 238 381 247q350 0 350 -299v-484q8 -68 80 -86t85 -99h-257q-131 14 -145 103v382q0 30 -31 26q-257 -62 -257 -192q-1 -129 118 -134
q39 4 64 -33q44 -65 -40 -122q-49 -31 -126 -30zM744 1452q35 -1 35 -32q-5 -21 -26 -40l-211 -225q-27 -34 -58 -34q-35 0 -35 34l81 254q14 43 49 43h165z" />
    <glyph glyph-name="acircumflex" unicode="&#xe2;" horiz-adv-x="1057" 
d="M353 1q-259 22 -263 247q1 242 504 384q31 7 31 41q0 173 -133 173h-11q-103 0 -103 -114q-6 -134 -133 -134q-109 0 -114 124q0 238 381 247q350 0 350 -299v-484q8 -68 80 -86t85 -99h-257q-131 14 -145 103v382q0 30 -31 26q-257 -62 -257 -192q-1 -129 118 -134
q39 4 64 -33q44 -65 -40 -122q-49 -31 -126 -30zM545 1449q64 0 246 -311q0 -28 -38 -37q-27 0 -246 169h-19q-207 -169 -244 -169q-31 9 -37 37q184 311 244 311h94z" />
    <glyph glyph-name="atilde" unicode="&#xe3;" horiz-adv-x="1057" 
d="M353 1q-259 22 -263 247q1 242 504 384q31 7 31 41q0 173 -133 173h-11q-103 0 -103 -114q-6 -134 -133 -134q-109 0 -114 124q0 238 381 247q350 0 350 -299v-484q8 -68 80 -86t85 -99h-257q-131 14 -145 103v382q0 30 -31 26q-257 -62 -257 -192q-1 -129 118 -134
q39 4 64 -33q44 -65 -40 -122q-49 -31 -126 -30zM363 1451q48 0 330 -134q51 0 82 124l31 10q65 -2 52 -72q-37 -238 -238 -238q-68 0 -308 125h-31q-26 0 -63 -114q-23 -16 -52.5 -8.5t-29.5 39.5q21 268 227 268z" />
    <glyph glyph-name="adieresis" unicode="&#xe4;" horiz-adv-x="1057" 
d="M353 1q-259 22 -263 247q1 242 504 384q31 7 31 41q0 173 -133 173h-11q-103 0 -103 -114q-6 -134 -133 -134q-109 0 -114 124q0 238 381 247q350 0 350 -299v-484q8 -68 80 -86t85 -99h-257q-131 14 -145 103v382q0 30 -31 26q-257 -62 -257 -192q-1 -129 118 -134
q39 4 64 -33q44 -65 -40 -122q-49 -31 -126 -30zM310 1446q138 -4 138 -139q0 -119 -138 -129q-140 4 -140 129q0 131 140 139zM690 1446q138 -4 138 -139q0 -119 -138 -129q-140 4 -140 129q0 131 140 139z" />
    <glyph glyph-name="aring" unicode="&#xe5;" horiz-adv-x="1057" 
d="M353 1q-259 22 -263 247q1 242 504 384q31 7 31 41q0 173 -133 173h-11q-103 0 -103 -114q-6 -134 -133 -134q-109 0 -114 124q0 238 381 247q350 0 350 -299v-484q8 -68 80 -86t85 -99h-257q-131 14 -145 103v382q0 30 -31 26q-257 -62 -257 -192q-1 -129 118 -134
q39 4 64 -33q44 -65 -40 -122q-49 -31 -126 -30zM312 1204q-14 31 -14 67q0 75 58.5 128t141.5 53h1q83 0 141.5 -53t58.5 -128q0 -36 -14 -67q-3 -7 -7 -14q-9 -15 -21 -29q-54 -53 -95 -11q-39 39 7 88q3 5 5 10h-1q4 10 4 23q0 30 -23 51t-55 21q-33 0 -56 -21t-23 -51
q0 -13 4 -23h-1q2 -5 5 -10q46 -49 7 -88q-41 -42 -95 11q-12 14 -21 29q-4 7 -7 14z" />
    <glyph glyph-name="ae" unicode="&#xe6;" horiz-adv-x="1439" 
d="M477 173q63 17 90 -37q32 -68 -56 -111q-84 -25 -158 -25q-263 2 -263 252q0 233 463 374q32 9 32 45v75q-13 102 -101 102q-121 0 -121 -111q0 -132 -121 -132q-111 2 -111 121q0 234 354 242q182 0 292 -90q81 90 263 90q363 -21 363 -363q0 -60 -71 -60h-318
q-86 0 -86 65.5t85 65.5h109q29 0 29 26q-17 125 -142 125q-149 0 -172 -151q-12 -97 -10 -222q4 -242 183 -242h80q131 0 220 171q26 21 54.5 8.5t28.5 -38.5q0 -339 -394 -353q-258 0 -373 252q-41 98 -41 225q0 27 -27 20q-217 -47 -225 -205q0 -114 111 -121q17 1 33 2z
" />
    <glyph glyph-name="ccedilla" unicode="&#xe7;" horiz-adv-x="1001" 
d="M542 989q390 2 403 -203q0 -136 -138 -149q-171 0 -171 193q-38 33 -139 20q-166 -44 -180 -299q10 -352 244 -352h85q140 0 247 214h9q64 0 64 -54q-113 -384 -438 -384h-9q-442 0 -449 513q14 466 472 501zM544 3h46q45 0 32 -40l-8 -24q106 -55 106 -149
q0 -201 -276 -212q-122 0 -128 53q0 64 74 67q107 0 107 57q0 41 -53 49t-43 50q89 149 143 149z" />
    <glyph glyph-name="egrave" unicode="&#xe8;" horiz-adv-x="1035" 
d="M701 711q-22 149 -180 149q-208 -7 -215 -364q6 -299 246 -299q267 0 353 214q66 -1 76 -54q-40 -332 -430 -386h-21q-456 0 -460 493q25 525 493 525q393 0 418 -375q0 -65 -97 -65h-393q-83 1 -83 64.5t83 64.5h174q36 0 36 33zM435 1452q35 0 49 -43l81 -254
q0 -34 -35 -34q-31 0 -58 34l-211 225q-21 19 -26 40q0 31 35 32h165z" />
    <glyph glyph-name="eacute" unicode="&#xe9;" horiz-adv-x="1035" 
d="M701 711q-22 149 -180 149q-208 -7 -215 -364q6 -299 246 -299q267 0 353 214q66 -1 76 -54q-40 -332 -430 -386h-21q-456 0 -460 493q25 525 493 525q393 0 418 -375q0 -65 -97 -65h-393q-83 1 -83 64.5t83 64.5h174q36 0 36 33zM780 1452q35 -1 35 -32q-5 -21 -26 -40
l-211 -225q-27 -34 -58 -34q-35 0 -35 34l81 254q14 43 49 43h165z" />
    <glyph glyph-name="ecircumflex" unicode="&#xea;" horiz-adv-x="1035" 
d="M701 711q-22 149 -180 149q-208 -7 -215 -364q6 -299 246 -299q267 0 353 214q66 -1 76 -54q-40 -332 -430 -386h-21q-456 0 -460 493q25 525 493 525q393 0 418 -375q0 -65 -97 -65h-393q-83 1 -83 64.5t83 64.5h174q36 0 36 33zM571 1449q64 0 246 -311q0 -28 -38 -37
q-27 0 -246 169h-19q-207 -169 -244 -169q-31 9 -37 37q184 311 244 311h94z" />
    <glyph glyph-name="edieresis" unicode="&#xeb;" horiz-adv-x="1035" 
d="M701 711q-22 149 -180 149q-208 -7 -215 -364q6 -299 246 -299q267 0 353 214q66 -1 76 -54q-40 -332 -430 -386h-21q-456 0 -460 493q25 525 493 525q393 0 418 -375q0 -65 -97 -65h-393q-83 1 -83 64.5t83 64.5h174q36 0 36 33zM336 1446q138 -4 138 -139
q0 -119 -138 -129q-140 4 -140 129q0 131 140 139zM716 1446q138 -4 138 -139q0 -119 -138 -129q-140 4 -140 129q0 131 140 139z" />
    <glyph glyph-name="igrave" unicode="&#xec;" horiz-adv-x="584" 
d="M360 968q61 0 61 -73v-741q0 -45 67.5 -66t67.5 -88h-526q0 63 72 88.5t72 86.5v635q0 52 -72 72t-72 86h330zM173 1452q35 0 49 -43l81 -254q0 -34 -35 -34q-31 0 -58 34l-211 225q-21 19 -26 40q0 31 35 32h165z" />
    <glyph glyph-name="iacute" unicode="&#xed;" horiz-adv-x="584" 
d="M360 968q61 0 61 -73v-741q0 -45 67.5 -66t67.5 -88h-526q0 63 72 88.5t72 86.5v635q0 52 -72 72t-72 86h330zM538 1452q35 -1 35 -32q-5 -21 -26 -40l-211 -225q-27 -34 -58 -34q-35 0 -35 34l81 254q14 43 49 43h165z" />
    <glyph glyph-name="icircumflex" unicode="&#xee;" horiz-adv-x="584" 
d="M360 968q61 0 61 -73v-741q0 -45 67.5 -66t67.5 -88h-526q0 63 72 88.5t72 86.5v635q0 52 -72 72t-72 86h330zM339 1449q64 0 246 -311q0 -28 -38 -37q-27 0 -246 169h-19q-207 -169 -244 -169q-31 9 -37 37q184 311 244 311h94z" />
    <glyph glyph-name="idieresis" unicode="&#xef;" horiz-adv-x="584" 
d="M360 968q61 0 61 -73v-741q0 -45 67.5 -66t67.5 -88h-526q0 63 72 88.5t72 86.5v635q0 52 -72 72t-72 86h330zM104 1466q138 -4 138 -139q0 -119 -138 -129q-140 4 -140 129q0 131 140 139zM484 1466q138 -4 138 -139q0 -119 -138 -129q-140 4 -140 129q0 131 140 139z
" />
    <glyph glyph-name="eth" unicode="&#xf0;" horiz-adv-x="987" 
d="M393 792q-140 -61 -140 -335q-4 -322 213 -322q213 0 215 313q0 228 -107.5 419.5t-164.5 191.5l-214 -107q-25 0 -68 68q2 31 194 127q0 19 -145 136v19l48 48l252 -126q205 107 234 107h10q23 0 49 -68q0 -31 -175 -107q-10 -14 0 -29q340 -319 340 -671
q-20 -439 -466 -456q-441 0 -468 457q22 396 327 456v1l37 6q85 13 95 -52q9 -62 -66 -76z" />
    <glyph glyph-name="ntilde" unicode="&#xf1;" horiz-adv-x="1246" 
d="M462 177q0 -64 72.5 -83.5t82.5 -93.5h-536q0 67 67 87.5t67 87.5v629q-2 52 -72 74.5t-73 89.5h331q61 0 61 -64v-727zM676 956q35 8 75 12q249 0 289 -292v-500q0 -68 71.5 -86.5t73.5 -89.5h-537q0 72 72 88t73 88v480q0 89 -73 125h-63q-59 -8 -82 48q-31 74 66 114
l34 14zM492 1451q48 0 330 -134q51 0 82 124l31 10q65 -2 52 -72q-37 -238 -238 -238q-68 0 -308 125h-31q-26 0 -63 -114q-23 -16 -52.5 -8.5t-29.5 39.5q21 268 227 268z" />
    <glyph glyph-name="ograve" unicode="&#xf2;" 
d="M434 917q55 -61 -10 -131q-83 -78 -83 -315q8 -338 241 -348q230 28 230 359q0 312 -172 361q-70 8 -70 72q1 81 110 66q383 -58 393 -499q-13 -507 -491 -507q-500 0 -512 518q20 357 264 446q56 25 100 -22zM482 1452q35 0 49 -43l81 -254q0 -34 -35 -34q-31 0 -58 34
l-211 225q-21 19 -26 40q0 31 35 32h165z" />
    <glyph glyph-name="oacute" unicode="&#xf3;" 
d="M434 917q55 -61 -10 -131q-83 -78 -83 -315q8 -338 241 -348q230 28 230 359q0 312 -172 361q-70 8 -70 72q1 81 110 66q383 -58 393 -499q-13 -507 -491 -507q-500 0 -512 518q20 357 264 446q56 25 100 -22zM827 1452q35 -1 35 -32q-5 -21 -26 -40l-211 -225
q-27 -34 -58 -34q-35 0 -35 34l81 254q14 43 49 43h165z" />
    <glyph glyph-name="ocircumflex" unicode="&#xf4;" 
d="M434 917q55 -61 -10 -131q-83 -78 -83 -315q8 -338 241 -348q230 28 230 359q0 312 -172 361q-70 8 -70 72q1 81 110 66q383 -58 393 -499q-13 -507 -491 -507q-500 0 -512 518q20 357 264 446q56 25 100 -22zM618 1449q64 0 246 -311q0 -28 -38 -37q-27 0 -246 169h-19
q-207 -169 -244 -169q-31 9 -37 37q184 311 244 311h94z" />
    <glyph glyph-name="otilde" unicode="&#xf5;" 
d="M434 917q55 -61 -10 -131q-83 -78 -83 -315q8 -338 241 -348q230 28 230 359q0 312 -172 361q-70 8 -70 72q1 81 110 66q383 -58 393 -499q-13 -507 -491 -507q-500 0 -512 518q20 357 264 446q56 25 100 -22zM436 1451q48 0 330 -134q51 0 82 124l31 10q65 -2 52 -72
q-37 -238 -238 -238q-68 0 -308 125h-31q-26 0 -63 -114q-23 -16 -52.5 -8.5t-29.5 39.5q21 268 227 268z" />
    <glyph glyph-name="odieresis" unicode="&#xf6;" 
d="M434 917q55 -61 -10 -131q-83 -78 -83 -315q8 -338 241 -348q230 28 230 359q0 312 -172 361q-70 8 -70 72q1 81 110 66q383 -58 393 -499q-13 -507 -491 -507q-500 0 -512 518q20 357 264 446q56 25 100 -22zM383 1466q138 -4 138 -139q0 -119 -138 -129
q-140 4 -140 129q0 131 140 139zM763 1466q138 -4 138 -139q0 -119 -138 -129q-140 4 -140 129q0 131 140 139z" />
    <glyph glyph-name="divide" unicode="&#xf7;" horiz-adv-x="644" 
d="M124 574h387q100 0 100 -99q0 -100 -100 -100h-387q-99 0 -99 100q0 99 99 99zM319 259q138 -4 138 -139q0 -109 -138 -129q-140 14 -140 129q0 131 140 139zM319 959q138 -4 138 -139q0 -109 -138 -129q-140 14 -140 129q0 131 140 139z" />
    <glyph glyph-name="oslash" unicode="&#xf8;" horiz-adv-x="1160" 
d="M288 46q-63 -63 -75 -67q-62 -11 -83.5 16t-13.5 46q6 15 73 91q-104 129 -109 361q20 357 264 446q56 25 100 -22q55 -61 -10 -131q-83 -78 -83 -315q8 -338 241 -348q230 28 230 358q0 66 -7 121l-223 -242q-65 -68 -117 -18t13 118l278 291q-41 71 -116 92
q-70 8 -70 72q1 80 110 66q130 -20 217 -83q38 42 80 85q52 14 84 -8.5t23 -66.5q-49 -54 -96 -105q80 -122 84 -322q-12 -506 -490 -506q-186 0 -304 71z" />
    <glyph glyph-name="ugrave" unicode="&#xf9;" horiz-adv-x="1241" 
d="M792 803q0 52 -72 74t-72 92h319q73 0 73 -74v-706q1 -71 72.5 -96t71.5 -93h-331q-61 8 -61 75v728zM514 0q-269 0 -279 304v487q0 63 -82 83t-83 95h340q62 0 62 -63v-541q0 -171 125 -177q69 6 91 -58q28 -85 -82 -121q-33 -8 -92 -9zM537 1452q35 0 49 -43l81 -254
q0 -34 -35 -34q-31 0 -58 34l-211 225q-21 19 -26 40q0 31 35 32h165z" />
    <glyph glyph-name="uacute" unicode="&#xfa;" horiz-adv-x="1241" 
d="M792 803q0 52 -72 74t-72 92h319q73 0 73 -74v-706q1 -71 72.5 -96t71.5 -93h-331q-61 8 -61 75v728zM514 0q-269 0 -279 304v487q0 63 -82 83t-83 95h340q62 0 62 -63v-541q0 -171 125 -177q69 6 91 -58q28 -85 -82 -121q-33 -8 -92 -9zM882 1452q35 -1 35 -32
q-5 -21 -26 -40l-211 -225q-27 -34 -58 -34q-35 0 -35 34l81 254q14 43 49 43h165z" />
    <glyph glyph-name="ucircumflex" unicode="&#xfb;" horiz-adv-x="1241" 
d="M792 803q0 52 -72 74t-72 92h319q73 0 73 -74v-706q1 -71 72.5 -96t71.5 -93h-331q-61 8 -61 75v728zM514 0q-269 0 -279 304v487q0 63 -82 83t-83 95h340q62 0 62 -63v-541q0 -171 125 -177q69 6 91 -58q28 -85 -82 -121q-33 -8 -92 -9zM673 1449q64 0 246 -311
q0 -28 -38 -37q-27 0 -246 169h-19q-207 -169 -244 -169q-31 9 -37 37q184 311 244 311h94z" />
    <glyph glyph-name="udieresis" unicode="&#xfc;" horiz-adv-x="1241" 
d="M792 803q0 52 -72 74t-72 92h319q73 0 73 -74v-706q1 -71 72.5 -96t71.5 -93h-331q-61 8 -61 75v728zM514 0q-269 0 -279 304v487q0 63 -82 83t-83 95h340q62 0 62 -63v-541q0 -171 125 -177q69 6 91 -58q28 -85 -82 -121q-33 -8 -92 -9zM438 1446q138 -4 138 -139
q0 -119 -138 -129q-140 4 -140 129q0 131 140 139zM818 1446q138 -4 138 -139q0 -119 -138 -129q-140 4 -140 129q0 131 140 139z" />
    <glyph glyph-name="yacute" unicode="&#xfd;" horiz-adv-x="1177" 
d="M742 160l-203 -438q-78 -152 -296 -152q-171 0 -180 141q0 113 149 129q100 -2 159 -33q75 0 171 268l-397 745q-25 44 -75 69t-50 79h522q0 -63 -72.5 -88.5t-57.5 -61.5l328 -601q14 -28 2 -57zM730 493l132 332q15 39 -36.5 58t-60.5 85h393q-1 -57 -47.5 -78.5
t-63.5 -62.5l-176 -382l-3 -7q-37 -89 -106 -60q-68 28 -32 115zM844 1352q35 -1 35 -32q-5 -21 -26 -40l-211 -225q-27 -34 -58 -34q-35 0 -35 34l81 254q14 43 49 43h165z" />
    <glyph glyph-name="thorn" unicode="&#xfe;" horiz-adv-x="1160" 
d="M590 967q44 4 98 4q358 0 376 -466q0 -489 -426 -505q-161 0 -203 28q-21 11 -20 -20v-202q0 -61 81 -86t81 -97h-557q0 72 81 96t81 87v1358q0 72 -74 96t-78 90h334q51 0 51 -53v-993q0 -156 196 -156q186 0 186 342q-6 318 -179 331q-103 0 -103 69q0 67 75 77z" />
    <glyph glyph-name="ydieresis" unicode="&#xff;" horiz-adv-x="1177" 
d="M742 160l-203 -438q-78 -152 -296 -152q-171 0 -180 141q0 113 149 129q100 -2 159 -33q75 0 171 268l-397 745q-25 44 -75 69t-50 79h522q0 -63 -72.5 -88.5t-57.5 -61.5l328 -601q14 -28 2 -57zM730 493l132 332q15 39 -36.5 58t-60.5 85h393q-1 -57 -47.5 -78.5
t-63.5 -62.5l-176 -382l-3 -7q-37 -89 -106 -60q-68 28 -32 115zM400 1446q138 -4 138 -139q0 -119 -138 -129q-140 4 -140 129q0 131 140 139zM780 1446q138 -4 138 -139q0 -119 -138 -129q-140 4 -140 129q0 131 140 139z" />
    <glyph glyph-name="Abreve" unicode="&#x102;" horiz-adv-x="1563" 
d="M353 162q-26 -47 65 -69t91 -93h-489q0 61 64.5 82t102.5 90l339 701q39 83 102.5 53t24.5 -113zM896 554l-248 534q-12 28 2 52l88 189q17 21 41 21t39 -26l562 -1179q17 -32 87 -56.5t70 -88.5h-601q0 61 74 86.5t67 75.5l-117 251h-261q-92 -3 -92 67.5t92 73.5h197z
M501 1833q96 -144 196 -144h155q122 0 195 144h21q41 -10 41 -41q-10 -275 -340 -289q-320 14 -320 310z" />
    <glyph glyph-name="abreve" unicode="&#x103;" horiz-adv-x="1057" 
d="M353 1q-259 22 -263 247q1 242 504 384q31 7 31 41q0 173 -133 173h-11q-103 0 -103 -114q-6 -134 -133 -134q-109 0 -114 124q0 238 381 247q350 0 350 -299v-484q8 -68 80 -86t85 -99h-257q-131 14 -145 103v382q0 30 -31 26q-257 -62 -257 -192q-1 -129 118 -134
q39 4 64 -33q44 -65 -40 -122q-49 -31 -126 -30zM211 1451q96 -144 196 -144h155q122 0 195 144h21q41 -10 41 -41q-10 -275 -340 -289q-320 14 -320 310z" />
    <glyph glyph-name="Aogonek" unicode="&#x104;" horiz-adv-x="1563" 
d="M353 162q-26 -47 65 -69t91 -93h-489q0 61 64.5 82t102.5 90l339 701q39 83 102.5 53t24.5 -113zM896 554l-248 534q-12 28 2 52l88 189q17 21 41 21t39 -26l562 -1179q17 -32 87 -56.5t70 -88.5h-601q0 61 74 86.5t67 75.5l-117 251h-261q-92 -3 -92 67.5t92 73.5h197z
M1031 94q49 -12 49 -29v-19q-154 -143 -154 -229q9 -66 68 -66l86 9q37 -9 37 -67q-45 -85 -191 -95q-190 0 -190 162q0 156 295 334z" />
    <glyph glyph-name="aogonek" unicode="&#x105;" horiz-adv-x="1057" 
d="M353 1q-259 22 -263 247q1 242 504 384q31 7 31 41q0 173 -133 173h-11q-103 0 -103 -114q-6 -134 -133 -134q-109 0 -114 124q0 238 381 247q350 0 350 -299v-484q8 -68 80 -86t85 -99h-257q-131 14 -145 103v382q0 30 -31 26q-257 -62 -257 -192q-1 -129 118 -134
q39 4 64 -33q44 -65 -40 -122q-49 -31 -126 -30zM841 94q49 -12 49 -29v-19q-154 -143 -154 -229q9 -66 68 -66l86 9q37 -9 37 -67q-45 -85 -191 -95q-190 0 -190 162q0 156 295 334z" />
    <glyph glyph-name="Cacute" unicode="&#x106;" horiz-adv-x="1482" 
d="M767 1370q231 0 410 -83h21q8 79 72 83h39l74 -441q-75 -17 -164 141q-122 167 -441 167q-385 0 -390 -574q0 -478 388 -535q353 0 555 256h11q46 -19 51 -40v-21q-210 -348 -615 -348q-677 24 -698 686q21 684 687 709zM992 1834q35 -1 35 -32q-5 -21 -26 -40l-211 -225
q-27 -34 -58 -34q-35 0 -35 34l81 254q14 43 49 43h165z" />
    <glyph glyph-name="cacute" unicode="&#x107;" horiz-adv-x="1001" 
d="M542 989q390 2 403 -203q0 -136 -138 -149q-171 0 -171 193q-38 33 -139 20q-166 -44 -180 -299q10 -352 244 -352h85q140 0 247 214h9q64 0 64 -54q-113 -384 -438 -384h-9q-442 0 -449 513q14 466 472 501zM773 1452q35 -1 35 -32q-5 -21 -26 -40l-211 -225
q-27 -34 -58 -34q-35 0 -35 34l81 254q14 43 49 43h165z" />
    <glyph glyph-name="Ccircumflex" unicode="&#x108;" horiz-adv-x="1482" 
d="M767 1370q231 0 410 -83h21q8 79 72 83h39l74 -441q-75 -17 -164 141q-122 167 -441 167q-385 0 -390 -574q0 -478 388 -535q353 0 555 256h11q46 -19 51 -40v-21q-210 -348 -615 -348q-677 24 -698 686q21 684 687 709zM783 1831q64 0 246 -311q0 -28 -38 -37
q-27 0 -246 169h-19q-207 -169 -244 -169q-31 9 -37 37q184 311 244 311h94z" />
    <glyph glyph-name="ccircumflex" unicode="&#x109;" horiz-adv-x="1001" 
d="M542 989q390 2 403 -203q0 -136 -138 -149q-171 0 -171 193q-38 33 -139 20q-166 -44 -180 -299q10 -352 244 -352h85q140 0 247 214h9q64 0 64 -54q-113 -384 -438 -384h-9q-442 0 -449 513q14 466 472 501zM564 1449q64 0 246 -311q0 -28 -38 -37q-27 0 -246 169h-19
q-207 -169 -244 -169q-31 9 -37 37q184 311 244 311h94z" />
    <glyph glyph-name="Cdotaccent" unicode="&#x10a;" horiz-adv-x="1482" 
d="M767 1370q231 0 410 -83h21q8 79 72 83h39l74 -441q-75 -17 -164 141q-122 167 -441 167q-385 0 -390 -574q0 -478 388 -535q353 0 555 256h11q46 -19 51 -40v-21q-210 -348 -615 -348q-677 24 -698 686q21 684 687 709zM738 1828q138 -4 138 -139q0 -119 -138 -129
q-140 4 -140 129q0 131 140 139z" />
    <glyph glyph-name="cdotaccent" unicode="&#x10b;" horiz-adv-x="1001" 
d="M542 989q390 2 403 -203q0 -136 -138 -149q-171 0 -171 193q-38 33 -139 20q-166 -44 -180 -299q10 -352 244 -352h85q140 0 247 214h9q64 0 64 -54q-113 -384 -438 -384h-9q-442 0 -449 513q14 466 472 501zM519 1426q138 -4 138 -139q0 -119 -138 -129q-140 4 -140 129
q0 131 140 139z" />
    <glyph glyph-name="Ccaron" unicode="&#x10c;" horiz-adv-x="1482" 
d="M767 1370q231 0 410 -83h21q8 79 72 83h39l74 -441q-75 -17 -164 141q-122 167 -441 167q-385 0 -390 -574q0 -478 388 -535q353 0 555 256h11q46 -19 51 -40v-21q-210 -348 -615 -348q-677 24 -698 686q21 684 687 709zM689 1483q-60 0 -244 311q6 28 37 37
q37 0 244 -169h19q219 169 246 169q38 -9 38 -37q-182 -311 -246 -311h-94z" />
    <glyph glyph-name="ccaron" unicode="&#x10d;" horiz-adv-x="1001" 
d="M542 989q390 2 403 -203q0 -136 -138 -149q-171 0 -171 193q-38 33 -139 20q-166 -44 -180 -299q10 -352 244 -352h85q140 0 247 214h9q64 0 64 -54q-113 -384 -438 -384h-9q-442 0 -449 513q14 466 472 501zM470 1101q-60 0 -244 311q6 28 37 37q37 0 244 -169h19
q219 169 246 169q38 -9 38 -37q-182 -311 -246 -311h-94z" />
    <glyph glyph-name="Dcaron" unicode="&#x10e;" horiz-adv-x="1628" 
d="M532 135h158q468 0 516 526q0 512 -454 547h-478q-76 1 -165 36.5t-89 107.5h713q388 0 626 -226q161 -180 157 -455q0 -398 -434 -609q-191 -62 -371 -62h-619h-71q0 70 101.5 96t103.5 91v737q0 175 134 175t134 -175v-754q0 -35 38 -35zM720 1483q-60 0 -244 311
q6 28 37 37q37 0 244 -169h19q219 169 246 169q38 -9 38 -37q-182 -311 -246 -311h-94z" />
    <glyph glyph-name="dcaron" unicode="&#x10f;" horiz-adv-x="1473" 
d="M490 1v-1q-369 0 -420 447q0 335 304 477q179 75 331 18q25 -9 25 24v212q0 63 -61.5 84t-66.5 89h310q51 -15 51 -71v-1096q0 -71 75.5 -93t76.5 -91h-324q-61 0 -61 61v599q0 143 -163 172h-50q-148 0 -183 -274v-91q0 -232 197 -292q18 -5 35 -6q36 3 58 -30
q41 -59 -36 -110q-38 -25 -98 -28zM1209 1476q203 -6 209 -229q0 -207 -285 -343q-27 0 -41 37q0 40 98 128q78 73 78 129v20l-78 -20q-133 2 -140 129q0 149 159 149z" />
    <glyph glyph-name="Dcroat" unicode="&#x110;" horiz-adv-x="1628" 
d="M514 570v-407q0 -28 28 -28h168q438 0 516 474v62q0 492 -454 537h-478q-56 1 -155 36.5t-99 107.5h743q358 0 596 -226q161 -180 157 -445q0 -408 -434 -619q-191 -62 -371 -62h-690q0 70 101.5 96t103.5 91v384q0 34 -37 34h-97q-72 0 -72 73q0 71 93 71h77q36 0 36 38
v137q0 175 134 175t134 -175v-137q0 -38 34 -38h313q93 0 93 -83q-4 -61 -91 -61h-314q-35 0 -35 -35z" />
    <glyph glyph-name="dcroat" unicode="&#x111;" horiz-adv-x="1155" 
d="M963 1017v-833q0 -71 75.5 -93t76.5 -91h-324q-61 0 -61 61v599q0 143 -163 172h-50q-148 0 -183 -274v-91q0 -232 197 -292q18 -5 35 -6q36 3 58 -30q41 -59 -36 -110q-38 -25 -98 -28v-1q-369 0 -420 447q0 335 304 477q179 75 331 18q25 -9 25 24v52q0 31 -33 31h-34
q-82 0 -82 73q0 71 93 71h28q27 0 28 18q-8 33 -61 51q-62 21 -67 89h310q51 -15 51 -71v-64q0 -23 30 -23h29q93 0 93 -83q-14 -61 -91 -61h-30q-31 0 -31 -32z" />
    <glyph glyph-name="Ebreve" unicode="&#x114;" horiz-adv-x="1327" 
d="M827 773q134 0 134 165l11 11h51q31 -11 31 -62v-381q0 -62 -31 -62h-48l-13 13q-4 161 -135 173h-145q-93 0 -93 71.5t93 71.5h145zM488 171q0 -36 32 -36h484q76 7 110.5 117t132.5 110l-66 -295q-16 -67 -75 -67h-1083q0 72 99 97t97 88v981q1 63 -97.5 88t-98.5 97
h1052q103 0 103 -134l14 -207q-71 0 -107 98.5t-95 98.5h-466q-36 0 -36 -35v-1001zM357 1833q96 -144 196 -144h155q122 0 195 144h21q41 -10 41 -41q-10 -275 -340 -289q-320 14 -320 310z" />
    <glyph glyph-name="ebreve" unicode="&#x115;" horiz-adv-x="1035" 
d="M701 711q-22 149 -180 149q-208 -7 -215 -364q6 -299 246 -299q267 0 353 214q66 -1 76 -54q-40 -332 -430 -386h-21q-456 0 -460 493q25 525 493 525q393 0 418 -375q0 -65 -97 -65h-393q-83 1 -83 64.5t83 64.5h174q36 0 36 33zM247 1451q96 -144 196 -144h155
q122 0 195 144h21q41 -10 41 -41q-10 -275 -340 -289q-320 14 -320 310z" />
    <glyph glyph-name="Edotaccent" unicode="&#x116;" horiz-adv-x="1327" 
d="M827 773q134 0 134 165l11 11h51q31 -11 31 -62v-381q0 -62 -31 -62h-48l-13 13q-4 161 -135 173h-145q-93 0 -93 71.5t93 71.5h145zM488 171q0 -36 32 -36h484q76 7 110.5 117t132.5 110l-66 -295q-16 -67 -75 -67h-1083q0 72 99 97t97 88v981q1 63 -97.5 88t-98.5 97
h1052q103 0 103 -134l14 -207q-71 0 -107 98.5t-95 98.5h-466q-36 0 -36 -35v-1001zM636 1828q138 -4 138 -139q0 -119 -138 -129q-140 4 -140 129q0 131 140 139z" />
    <glyph glyph-name="edotaccent" unicode="&#x117;" horiz-adv-x="1035" 
d="M701 711q-22 149 -180 149q-208 -7 -215 -364q6 -299 246 -299q267 0 353 214q66 -1 76 -54q-40 -332 -430 -386h-21q-456 0 -460 493q25 525 493 525q393 0 418 -375q0 -65 -97 -65h-393q-83 1 -83 64.5t83 64.5h174q36 0 36 33zM526 1426q138 -4 138 -139
q0 -119 -138 -129q-140 4 -140 129q0 131 140 139z" />
    <glyph glyph-name="Eogonek" unicode="&#x118;" horiz-adv-x="1327" 
d="M827 773q134 0 134 165l11 11h51q31 -11 31 -62v-381q0 -62 -31 -62h-48l-13 13q-4 161 -135 173h-145q-93 0 -93 71.5t93 71.5h145zM488 171q0 -36 32 -36h484q76 7 110.5 117t132.5 110l-66 -295q-16 -67 -75 -67h-1083q0 72 99 97t97 88v981q1 63 -97.5 88t-98.5 97
h1052q103 0 103 -134l14 -207q-71 0 -107 98.5t-95 98.5h-466q-36 0 -36 -35v-1001zM1121 94q49 -12 49 -29v-19q-154 -143 -154 -229q9 -66 68 -66l86 9q37 -9 37 -67q-45 -85 -191 -95q-190 0 -190 162q0 156 295 334z" />
    <glyph glyph-name="eogonek" unicode="&#x119;" horiz-adv-x="1035" 
d="M701 711q-22 149 -180 149q-208 -7 -215 -364q6 -299 246 -299q267 0 353 214q66 -1 76 -54q-40 -332 -430 -386h-21q-456 0 -460 493q25 525 493 525q393 0 418 -375q0 -65 -97 -65h-393q-83 1 -83 64.5t83 64.5h174q36 0 36 33zM825 169q49 -12 49 -29v-19
q-154 -143 -154 -229q9 -66 68 -66l86 9q37 -9 37 -67q-45 -85 -191 -95q-190 0 -190 162q0 156 295 334z" />
    <glyph glyph-name="Ecaron" unicode="&#x11a;" horiz-adv-x="1327" 
d="M827 773q134 0 134 165l11 11h51q31 -11 31 -62v-381q0 -62 -31 -62h-48l-13 13q-4 161 -135 173h-145q-93 0 -93 71.5t93 71.5h145zM488 171q0 -36 32 -36h484q76 7 110.5 117t132.5 110l-66 -295q-16 -67 -75 -67h-1083q0 72 99 97t97 88v981q1 63 -97.5 88t-98.5 97
h1052q103 0 103 -134l14 -207q-71 0 -107 98.5t-95 98.5h-466q-36 0 -36 -35v-1001zM587 1483q-60 0 -244 311q6 28 37 37q37 0 244 -169h19q219 169 246 169q38 -9 38 -37q-182 -311 -246 -311h-94z" />
    <glyph glyph-name="ecaron" unicode="&#x11b;" horiz-adv-x="1035" 
d="M701 711q-22 149 -180 149q-208 -7 -215 -364q6 -299 246 -299q267 0 353 214q66 -1 76 -54q-40 -332 -430 -386h-21q-456 0 -460 493q25 525 493 525q393 0 418 -375q0 -65 -97 -65h-393q-83 1 -83 64.5t83 64.5h174q36 0 36 33zM477 1101q-60 0 -244 311q6 28 37 37
q37 0 244 -169h19q219 169 246 169q38 -9 38 -37q-182 -311 -246 -311h-94z" />
    <glyph glyph-name="Gcircumflex" unicode="&#x11c;" horiz-adv-x="1606" 
d="M1137 590q-2 46 -93.5 75.5t-91.5 98.5h635q0 -68 -94 -101t-89 -82v-422q0 -101 -236 -147q-31 -5 -31 28v550zM840 1237q-344 0 -442 -380l-10 -93v-102q0 -359 308 -513q74 -39 221 -41q105 17 116 -50q10 -73 -92 -80q-35 -2 -70 -3q-766 21 -791 687q23 679 778 708
q227 -2 340 -83q8 79 72 83h39l74 -441q-75 -17 -164 141q-84 108 -212 146q-51 21 -167 21zM880 1831q64 0 246 -311q0 -28 -38 -37q-27 0 -246 169h-19q-207 -169 -244 -169q-31 9 -37 37q184 311 244 311h94z" />
    <glyph glyph-name="gcircumflex" unicode="&#x11d;" horiz-adv-x="1078" 
d="M644 314l-30 -8q-71 -17 -90 35q-10 52 42 73q93 39 93 193q2 247 -156 247q-164 0 -164 -216q0 -142 55 -198q29 -24 29 -61q0 -58 -62 -76q-31 -10 -42 -45q-10 -32 20 -42q512 0 608 -82q83 -61 83 -176q0 -337 -536 -360h-62q-412 19 -412 206v21q0 19 16 49
q55 107 140 66q52 -26 53 -78q21 -75 274 -78h95q237 0 287 123v31q0 62 -244 58t-343 11q-195 39 -195 147q0 90 124 186v20q-135 129 -135 268q0 324 422 340q136 0 247 -62h196q82 -5 82 -83q0 -71 -133 -71h-21q17 -38 21 -145q0 -208 -262 -293zM576 1449
q64 0 246 -311q0 -28 -38 -37q-27 0 -246 169h-19q-207 -169 -244 -169q-31 9 -37 37q184 311 244 311h94z" />
    <glyph glyph-name="Gbreve" unicode="&#x11e;" horiz-adv-x="1606" 
d="M1137 590q-2 46 -93.5 75.5t-91.5 98.5h635q0 -68 -94 -101t-89 -82v-422q0 -101 -236 -147q-31 -5 -31 28v550zM840 1237q-344 0 -442 -380l-10 -93v-102q0 -359 308 -513q74 -39 221 -41q105 17 116 -50q10 -73 -92 -80q-35 -2 -70 -3q-766 21 -791 687q23 679 778 708
q227 -2 340 -83q8 79 72 83h39l74 -441q-75 -17 -164 141q-84 108 -212 146q-51 21 -167 21zM556 1833q96 -144 196 -144h155q122 0 195 144h21q41 -10 41 -41q-10 -275 -340 -289q-320 14 -320 310z" />
    <glyph glyph-name="gbreve" unicode="&#x11f;" horiz-adv-x="1078" 
d="M644 314l-30 -8q-71 -17 -90 35q-10 52 42 73q93 39 93 193q2 247 -156 247q-164 0 -164 -216q0 -142 55 -198q29 -24 29 -61q0 -58 -62 -76q-31 -10 -42 -45q-10 -32 20 -42q512 0 608 -82q83 -61 83 -176q0 -337 -536 -360h-62q-412 19 -412 206v21q0 19 16 49
q55 107 140 66q52 -26 53 -78q21 -75 274 -78h95q237 0 287 123v31q0 62 -244 58t-343 11q-195 39 -195 147q0 90 124 186v20q-135 129 -135 268q0 324 422 340q136 0 247 -62h196q82 -5 82 -83q0 -71 -133 -71h-21q17 -38 21 -145q0 -208 -262 -293zM252 1451
q96 -144 196 -144h155q122 0 195 144h21q41 -10 41 -41q-10 -275 -340 -289q-320 14 -320 310z" />
    <glyph glyph-name="Gdotaccent" unicode="&#x120;" horiz-adv-x="1606" 
d="M1137 590q-2 46 -93.5 75.5t-91.5 98.5h635q0 -68 -94 -101t-89 -82v-422q0 -101 -236 -147q-31 -5 -31 28v550zM840 1237q-344 0 -442 -380l-10 -93v-102q0 -359 308 -513q74 -39 221 -41q105 17 116 -50q10 -73 -92 -80q-35 -2 -70 -3q-766 21 -791 687q23 679 778 708
q227 -2 340 -83q8 79 72 83h39l74 -441q-75 -17 -164 141q-84 108 -212 146q-51 21 -167 21zM835 1828q138 -4 138 -139q0 -119 -138 -129q-140 4 -140 129q0 131 140 139z" />
    <glyph glyph-name="gdotaccent" unicode="&#x121;" horiz-adv-x="1078" 
d="M644 314l-30 -8q-71 -17 -90 35q-10 52 42 73q93 39 93 193q2 247 -156 247q-164 0 -164 -216q0 -142 55 -198q29 -24 29 -61q0 -58 -62 -76q-31 -10 -42 -45q-10 -32 20 -42q512 0 608 -82q83 -61 83 -176q0 -337 -536 -360h-62q-412 19 -412 206v21q0 19 16 49
q55 107 140 66q52 -26 53 -78q21 -75 274 -78h95q237 0 287 123v31q0 62 -244 58t-343 11q-195 39 -195 147q0 90 124 186v20q-135 129 -135 268q0 324 422 340q136 0 247 -62h196q82 -5 82 -83q0 -71 -133 -71h-21q17 -38 21 -145q0 -208 -262 -293zM531 1426
q138 -4 138 -139q0 -119 -138 -129q-140 4 -140 129q0 131 140 139z" />
    <glyph glyph-name="Hcircumflex" unicode="&#x124;" horiz-adv-x="1563" 
d="M483 186q0 -62 98 -88t98 -98h-659q0 72 98 98t98 88v978q0 62 -98 88t-98 98h659q0 -72 -98 -98t-98 -88v-978zM1042 607h-353q-105 0 -105 72.5t105 72.5h353q32 0 32 32v380q0 62 -98 88t-98 98h659q0 -72 -98 -98t-98 -88v-978q0 -62 98 -88t98 -98h-659q0 72 98 98
t98 88v391q0 30 -32 30zM825 1831q64 0 246 -311q0 -28 -38 -37q-27 0 -246 169h-19q-207 -169 -244 -169q-31 9 -37 37q184 311 244 311h94z" />
    <glyph glyph-name="hcircumflex" unicode="&#x125;" horiz-adv-x="1216" 
d="M461 164q0 -58 67 -74.5t77 -89.5h-526q0 60 67 87t68 77v1010q-1 61 -72.5 81.5t-71.5 95.5h329q62 0 62 -93v-1094zM750 958q254 0 267 -330v-453q0 -68 72 -85t72 -90h-535q0 67 76.5 90t77.5 85v546q-17 70 -109 57q-81 -17 -103 51q-25 78 77 111q55 18 105 18z
M662 1834q64 0 246 -311q0 -28 -38 -37q-27 0 -246 169h-19q-207 -169 -244 -169q-31 9 -37 37q184 311 244 311h94z" />
    <glyph glyph-name="Hbar" unicode="&#x126;" horiz-adv-x="1563" 
d="M1074 1174q0 52 -98 78t-98 98h659q0 -72 -98 -98t-98 -78q0 -24 30 -24h40q93 0 93 -83q-14 -61 -91 -61h-42q-30 0 -30 -30v-790q0 -62 98 -88t98 -98h-659q0 72 98 98t98 88v391q0 30 -32 30h-353q-105 0 -105 72.5t105 72.5h353q32 0 32 29v193q0 32 -30 32h-531
q-30 0 -30 -30v-790q0 -62 98 -88t98 -98h-659q0 72 98 98t98 88v790q0 30 -32 30h-42q-82 0 -82 73q0 71 93 71h32q31 0 31 24q0 52 -98 78t-98 98h659q0 -72 -98 -98t-98 -78q0 -24 28 -24h534q29 0 29 24z" />
    <glyph glyph-name="hbar" unicode="&#x127;" horiz-adv-x="1216" 
d="M750 958q254 0 267 -330v-453q0 -68 72 -85t72 -90h-535q0 67 76.5 90t77.5 85v546q-17 70 -109 57q-81 -17 -103 51q-25 78 77 111q55 18 105 18zM461 1020v-856q0 -58 67 -74.5t77 -89.5h-526q0 60 67 87t68 77v853q0 32 -31 32h-31q-82 0 -82 73q0 71 93 71h24
q25 0 25 17q-11 28 -70 46q-72 20 -72 95h329q62 0 62 -93v-33q0 -32 30 -32h30q93 0 93 -83q-14 -61 -91 -61h-31q-31 0 -31 -29z" />
    <glyph glyph-name="Itilde" unicode="&#x128;" horiz-adv-x="704" 
d="M216 1164q0 62 -98 88t-98 98h659q0 -72 -98 -98t-98 -88v-978q0 -62 98 -88t98 -98h-659q0 72 98 98t98 88v978zM214 1833q48 0 330 -134q51 0 82 124l31 10q65 -2 52 -72q-37 -238 -238 -238q-68 0 -308 125h-31q-26 0 -63 -114q-23 -16 -52.5 -8.5t-29.5 39.5
q21 268 227 268z" />
    <glyph glyph-name="itilde" unicode="&#x129;" horiz-adv-x="584" 
d="M360 968q61 0 61 -73v-741q0 -45 67.5 -66t67.5 -88h-526q0 63 72 88.5t72 86.5v635q0 52 -72 72t-72 86h330zM158 1451q48 0 330 -134q51 0 82 124l31 10q65 -2 52 -72q-37 -238 -238 -238q-68 0 -308 125h-31q-26 0 -63 -114q-23 -16 -52.5 -8.5t-29.5 39.5
q21 268 227 268z" />
    <glyph glyph-name="Ibreve" unicode="&#x12c;" horiz-adv-x="704" 
d="M217 1164q0 62 -98 88t-98 98h659q0 -72 -98 -98t-98 -88v-978q0 -62 98 -88t98 -98h-659q0 72 98 98t98 88v978zM72 1833q96 -144 196 -144h155q122 0 195 144h21q41 -10 41 -41q-10 -275 -340 -289q-320 14 -320 310z" />
    <glyph glyph-name="ibreve" unicode="&#x12d;" horiz-adv-x="584" 
d="M360 968q61 0 61 -73v-741q0 -45 67.5 -66t67.5 -88h-526q0 63 72 88.5t72 86.5v635q0 52 -72 72t-72 86h330zM15 1451q96 -144 196 -144h155q122 0 195 144h21q41 -10 41 -41q-10 -275 -340 -289q-320 14 -320 310z" />
    <glyph glyph-name="Iogonek" unicode="&#x12e;" horiz-adv-x="704" 
d="M216 1164q0 62 -98 88t-98 98h659q0 -72 -98 -98t-98 -88v-978q0 -62 98 -88t98 -98h-659q0 72 98 98t98 88v978zM523 94q49 -12 49 -29v-19q-154 -143 -154 -229q9 -66 68 -66l86 9q37 -9 37 -67q-45 -85 -191 -95q-190 0 -190 162q0 156 295 334z" />
    <glyph glyph-name="iogonek" unicode="&#x12f;" horiz-adv-x="584" 
d="M298 1351q134 -4 134 -134q0 -123 -134 -124q-136 0 -144 124q0 126 144 134zM360 968q61 0 61 -73v-741q0 -45 67.5 -66t67.5 -88h-526q0 63 72 88.5t72 86.5v635q0 52 -72 72t-72 86h330zM420 94q49 -12 49 -29v-19q-154 -143 -154 -229q9 -66 68 -66l86 9
q37 -9 37 -67q-45 -85 -191 -95q-190 0 -190 162q0 156 295 334z" />
    <glyph glyph-name="Idotaccent" unicode="&#x130;" horiz-adv-x="704" 
d="M216 1164q0 62 -98 88t-98 98h659q0 -72 -98 -98t-98 -88v-978q0 -62 98 -88t98 -98h-659q0 72 98 98t98 88v978zM351 1728q138 -4 138 -139q0 -119 -138 -129q-140 4 -140 129q0 131 140 139z" />
    <glyph glyph-name="dotlessi" unicode="&#x131;" horiz-adv-x="584" 
d="M360 968q61 0 61 -73v-741q0 -45 67.5 -66t67.5 -88h-526q0 63 72 88.5t72 86.5v635q0 52 -72 72t-72 86h330z" />
    <glyph glyph-name="Jcircumflex" unicode="&#x134;" horiz-adv-x="863" 
d="M836 1349q0 -71 -95.5 -104t-95.5 -87v-685q0 -464 -394 -473q-217 0 -231 161q10 129 142 141q140 0 140 -171q80 0 80 90v936q0 61 -97.5 91t-97.5 101h649zM564 1831q64 0 246 -311q0 -28 -38 -37q-27 0 -246 169h-19q-207 -169 -244 -169q-31 9 -37 37
q184 311 244 311h94z" />
    <glyph glyph-name="jcircumflex" unicode="&#x135;" horiz-adv-x="627" 
d="M339 1449q64 0 246 -311q0 -28 -38 -37q-27 0 -246 169h-19q-207 -169 -244 -169q-31 9 -37 37q184 311 244 311h94zM435 970q52 -15 52 -72v-857q-19 -453 -402 -453q-154 0 -216 104v30q20 103 102 103h11q51 0 196 -93q51 0 62 42v1038q-2 50 -73.5 70.5t-71.5 87.5
h340z" />
    <glyph glyph-name="Lacute" unicode="&#x139;" horiz-adv-x="1246" 
d="M681 1350q0 -72 -99 -103t-98 -83v-1019h436q86 0 101 72q74 175 156 164l-67 -346q-8 -35 -49 -35h-1041q0 72 99.5 98t97.5 89v976q0 50 -98.5 83t-98.5 104h661zM644 1734q35 -1 35 -32q-5 -21 -26 -40l-211 -225q-27 -34 -58 -34q-35 0 -35 34l81 254q14 43 49 43
h165z" />
    <glyph glyph-name="lacute" unicode="&#x13a;" horiz-adv-x="623" 
d="M372 1350q64 0 64 -66v-1104q0 -63 73 -87t75 -93h-544q0 68 69.5 93t69.5 79v1006q0 61 -74.5 82t-74.5 90h342zM537 1854q35 -1 35 -32q-5 -21 -26 -40l-211 -225q-27 -34 -58 -34q-35 0 -35 34l81 254q14 43 49 43h165z" />
    <glyph glyph-name="Ldot" unicode="&#x13f;" horiz-adv-x="1246" 
d="M681 1350q0 -72 -99 -103t-98 -83v-1019h436q86 0 101 72q74 175 156 164l-67 -346q-8 -35 -49 -35h-1041q0 72 99.5 98t97.5 89v976q0 50 -98.5 83t-98.5 104h661zM756 809q138 -4 138 -139q0 -109 -138 -129q-140 14 -140 129q0 131 140 139z" />
    <glyph glyph-name="ldot" unicode="&#x140;" horiz-adv-x="901" 
d="M372 1350q64 0 64 -66v-1104q0 -63 73 -87t75 -93h-544q0 68 69.5 93t69.5 79v1006q0 61 -74.5 82t-74.5 90h342zM724 809q138 -4 138 -139q0 -109 -138 -129q-140 14 -140 129q0 131 140 139z" />
    <glyph glyph-name="Lslash" unicode="&#x141;" horiz-adv-x="1246" 
d="M217 747v416q0 50 -98.5 83t-98.5 104h661q0 -72 -99 -103t-98 -83v-417h117q93 0 93 -83q-14 -61 -91 -61h-119v-458h436q86 0 101 72q74 175 156 164l-67 -346q-8 -35 -49 -35h-1041q0 72 99.5 98t97.5 89v416h-115q-82 0 -82 73q0 71 93 71h104z" />
    <glyph glyph-name="lslash" unicode="&#x142;" horiz-adv-x="623" 
d="M179 747v431q0 61 -74.5 82t-74.5 90h342q64 0 64 -66v-537h75q93 0 93 -83q-14 -61 -91 -61h-77v-423q0 -63 73 -87t75 -93h-544q0 68 69.5 93t69.5 79v431h-77q-82 0 -82 73q0 71 93 71h66z" />
    <glyph glyph-name="Nacute" unicode="&#x143;" horiz-adv-x="1654" 
d="M1418 41q-10 -41 -42 -41h-49l-865 946h-11v-760q0 -49 103.5 -82t103.5 -104h-562q0 71 101 103t101 86v911q0 113 -139 144t-139 103h401q40 0 66 -39l908 -1016q23 -26 23 -63v-188zM1259 1160q2 60 -102 90t-104 100h568q0 -72 -103.5 -101.5t-103.5 -86.5v-566
q-1 -100 -78 -100t-77 100v564zM1076 1834q35 -1 35 -32q-5 -21 -26 -40l-211 -225q-27 -34 -58 -34q-35 0 -35 34l81 254q14 43 49 43h165z" />
    <glyph glyph-name="nacute" unicode="&#x144;" horiz-adv-x="1246" 
d="M462 177q0 -64 72.5 -83.5t82.5 -93.5h-536q0 67 67 87.5t67 87.5v629q-2 52 -72 74.5t-73 89.5h331q61 0 61 -64v-727zM676 956q35 8 75 12q249 0 289 -292v-500q0 -68 71.5 -86.5t73.5 -89.5h-537q0 72 72 88t73 88v480q0 89 -73 125h-63q-59 -8 -82 48q-31 74 66 114
l34 14zM883 1452q35 -1 35 -32q-5 -21 -26 -40l-211 -225q-27 -34 -58 -34q-35 0 -35 34l81 254q14 43 49 43h165z" />
    <glyph glyph-name="Ncaron" unicode="&#x147;" horiz-adv-x="1654" 
d="M1418 41q-10 -41 -42 -41h-49l-865 946h-11v-760q0 -49 103.5 -82t103.5 -104h-562q0 71 101 103t101 86v911q0 113 -139 144t-139 103h401q40 0 66 -39l908 -1016q23 -26 23 -63v-188zM1259 1160q2 60 -102 90t-104 100h568q0 -72 -103.5 -101.5t-103.5 -86.5v-566
q-1 -100 -78 -100t-77 100v564zM773 1483q-60 0 -244 311q6 28 37 37q37 0 244 -169h19q219 169 246 169q38 -9 38 -37q-182 -311 -246 -311h-94z" />
    <glyph glyph-name="ncaron" unicode="&#x148;" horiz-adv-x="1246" 
d="M462 177q0 -64 72.5 -83.5t82.5 -93.5h-536q0 67 67 87.5t67 87.5v629q-2 52 -72 74.5t-73 89.5h331q61 0 61 -64v-727zM676 956q35 8 75 12q249 0 289 -292v-500q0 -68 71.5 -86.5t73.5 -89.5h-537q0 72 72 88t73 88v480q0 89 -73 125h-63q-59 -8 -82 48q-31 74 66 114
l34 14zM580 1101q-60 0 -244 311q6 28 37 37q37 0 244 -169h19q219 169 246 169q38 -9 38 -37q-182 -311 -246 -311h-94z" />
    <glyph glyph-name="Obreve" unicode="&#x14e;" horiz-adv-x="1585" 
d="M800 1304q0 -69 -86 -73q-311 -42 -328 -565q0 -506 407 -550q399 10 410 540q0 495 -251 553q-57 23 -47 83q16 74 111 49q159 -47 289 -173q210 -205 210 -515q0 -269 -210 -473t-507 -204q-299 0 -508.5 204t-209.5 483q0 300 210 505q192 176 431 200q79 2 79 -64z
M520 1833q96 -144 196 -144h155q122 0 195 144h21q41 -10 41 -41q-10 -275 -340 -289q-320 14 -320 310z" />
    <glyph glyph-name="obreve" unicode="&#x14f;" 
d="M434 917q55 -61 -10 -131q-83 -78 -83 -315q8 -338 241 -348q230 28 230 359q0 312 -172 361q-70 8 -70 72q1 81 110 66q383 -58 393 -499q-13 -507 -491 -507q-500 0 -512 518q20 357 264 446q56 25 100 -22zM294 1451q96 -144 196 -144h155q122 0 195 144h21
q41 -10 41 -41q-10 -275 -340 -289q-320 14 -320 310z" />
    <glyph glyph-name="Ohungarumlaut" unicode="&#x150;" horiz-adv-x="1585" 
d="M800 1304q0 -69 -86 -73q-311 -42 -328 -565q0 -506 407 -550q399 10 410 540q0 495 -251 553q-57 23 -47 83q16 74 111 49q159 -47 289 -173q210 -205 210 -515q0 -269 -210 -473t-507 -204q-299 0 -508.5 204t-209.5 483q0 300 210 505q192 176 431 200q79 2 79 -64z
M866 1834q32 -1 32 -32q-5 -21 -24 -40l-191 -225q-24 -34 -52 -34q-32 0 -32 34l73 254q13 43 45 43h149zM1164 1834q32 -1 32 -32q-5 -21 -24 -40l-190 -225q-25 -34 -53 -34q-31 0 -31 34l73 254q12 43 44 43h149z" />
    <glyph glyph-name="ohungarumlaut" unicode="&#x151;" 
d="M434 917q55 -61 -10 -131q-83 -78 -83 -315q8 -338 241 -348q230 28 230 359q0 312 -172 361q-70 8 -70 72q1 81 110 66q383 -58 393 -499q-13 -507 -491 -507q-500 0 -512 518q20 357 264 446q56 25 100 -22zM640 1452q32 -1 32 -32q-5 -21 -24 -40l-191 -225
q-24 -34 -52 -34q-32 0 -32 34l73 254q13 43 45 43h149zM938 1452q32 -1 32 -32q-5 -21 -24 -40l-190 -225q-25 -34 -53 -34q-31 0 -31 34l73 254q12 43 44 43h149z" />
    <glyph glyph-name="OE" unicode="&#x152;" horiz-adv-x="2053" 
d="M1555 773q134 0 134 165l11 11h51q31 -11 31 -62v-381q0 -62 -31 -62h-48l-13 13q-4 161 -135 173h-145q-93 0 -93 71.5t93 71.5h145zM699 0q-595 20 -619 681q30 632 619 670h1104q103 0 103 -134l14 -207q-71 0 -107 98.5t-95 98.5h-466q-36 0 -36 -35v-1001
q0 -36 32 -36h484q76 7 110.5 117t132.5 110l-66 -295q-16 -67 -75 -67h-834q-54 0 -54 57v1056q0 113 -205 113q-343 0 -352 -525q0 -562 363 -566q88 0 88 -67.5t-88 -67.5h-53z" />
    <glyph glyph-name="oe" unicode="&#x153;" horiz-adv-x="1636" 
d="M1196 988q383 -14 383 -383q-9 -54 -64 -54h-521v-95q0 -306 235 -308q203 0 266 222q24 24 53.5 18.5t30.5 -39.5q0 -373 -404 -383q-176 0 -287 129q-168 -129 -351 -129q-431 21 -457 489q21 506 468 532q209 -11 340 -137q125 138 308 138zM346 466q0 -353 182 -362
q229 0 233 362q-3 393 -213 393q-202 0 -202 -393zM1005 689h298q0 159 -149 161q-149 0 -149 -161z" />
    <glyph glyph-name="Racute" unicode="&#x154;" horiz-adv-x="1323" 
d="M575 575q-24 23 -92 23v-412q0 -66 98 -90t98 -96h-659q0 72 98.5 98t97.5 88v738q-1 175 133 175t134 -175v-192h73q332 0 319 258q0 197 -206 215h-424q-57 0 -141 36.5t-84 108.5h597q546 0 567 -360q0 -247 -309 -341q-6 -23 12 -51l577 -818q55 -73 -1.5 -115.5
t-111.5 31.5zM911 1834q35 -1 35 -32q-5 -21 -26 -40l-211 -225q-27 -34 -58 -34q-35 0 -35 34l81 254q14 43 49 43h165z" />
    <glyph glyph-name="racute" unicode="&#x155;" horiz-adv-x="863" 
d="M411 968q62 -10 62 -74l-1 -30q99 104 207 104q148 0 165 -146q0 -114 -124 -124q-102 0 -144 73q-94 0 -103 -135v-460q0 -59 82 -80.5t83 -95.5h-558q0 64 72 89t73 86v614q-1 62 -78 86t-77 93h341zM642 1452q35 -1 35 -32q-5 -21 -26 -40l-211 -225q-27 -34 -58 -34
q-35 0 -35 34l81 254q14 43 49 43h165z" />
    <glyph glyph-name="Rcaron" unicode="&#x158;" horiz-adv-x="1323" 
d="M575 575q-24 23 -92 23v-412q0 -66 98 -90t98 -96h-659q0 72 98.5 98t97.5 88v738q-1 175 133 175t134 -175v-192h73q332 0 319 258q0 197 -206 215h-424q-57 0 -141 36.5t-84 108.5h597q546 0 567 -360q0 -247 -309 -341q-6 -23 12 -51l577 -818q55 -73 -1.5 -115.5
t-111.5 31.5zM608 1483q-60 0 -244 311q6 28 37 37q37 0 244 -169h19q219 169 246 169q38 -9 38 -37q-182 -311 -246 -311h-94z" />
    <glyph glyph-name="rcaron" unicode="&#x159;" horiz-adv-x="863" 
d="M411 968q62 -10 62 -74l-1 -30q99 104 207 104q148 0 165 -146q0 -114 -124 -124q-102 0 -144 73q-94 0 -103 -135v-460q0 -59 82 -80.5t83 -95.5h-558q0 64 72 89t73 86v614q-1 62 -78 86t-77 93h341zM409 1101q-60 0 -244 311q6 28 37 37q37 0 244 -169h19
q219 169 246 169q38 -9 38 -37q-182 -311 -246 -311h-94z" />
    <glyph glyph-name="Sacute" unicode="&#x15a;" 
d="M496 1208q-179 0 -179 -148q0 -127 466 -337q267 -141 277 -346q0 -360 -436 -377q-259 0 -416 70q-25 -70 -99 -70v485q70 0 98 -87t51 -120q89 -139 376 -139q178 20 178 158v10q0 146 -465 346q-257 127 -257 337q11 304 346 347q230 11 396 -64q71 -38 44 -98
q-30 -64 -114 -25q-123 56 -266 58zM830 1834q35 -1 35 -32q-5 -21 -26 -40l-211 -225q-27 -34 -58 -34q-35 0 -35 34l81 254q14 43 49 43h165z" />
    <glyph glyph-name="sacute" unicode="&#x15b;" horiz-adv-x="850" 
d="M167 55q-20 -55 -77 -55v378q54 0 76 -68t40 -93q5 -8 11 -15q74 -79 202 -79q139 5 139 89v21q0 88 -262 209q-216 94 -216 254q0 248 309 272q155 0 248 -52q18 52 72 52v-354q-51 0 -71.5 63.5t-37.5 87.5q-11 17 -27 31q-74 41 -164 41h-39q-101 -5 -101 -81
q0 -103 237 -185q272 -123 272 -278q0 -267 -359 -292q-141 1 -212 36q-21 8 -40 18zM684 1452q35 -1 35 -32q-5 -21 -26 -40l-211 -225q-27 -34 -58 -34q-35 0 -35 34l81 254q14 43 49 43h165z" />
    <glyph glyph-name="Scircumflex" unicode="&#x15c;" 
d="M496 1208q-179 0 -179 -148q0 -127 466 -337q267 -141 277 -346q0 -360 -436 -377q-259 0 -416 70q-25 -70 -99 -70v485q70 0 98 -87t51 -120q89 -139 376 -139q178 20 178 158v10q0 146 -465 346q-257 127 -257 337q11 304 346 347q230 11 396 -64q71 -38 44 -98
q-30 -64 -114 -25q-123 56 -266 58zM621 1831q64 0 246 -311q0 -28 -38 -37q-27 0 -246 169h-19q-207 -169 -244 -169q-31 9 -37 37q184 311 244 311h94z" />
    <glyph glyph-name="scircumflex" unicode="&#x15d;" horiz-adv-x="850" 
d="M167 55q-20 -55 -77 -55v378q54 0 76 -68t40 -93q5 -8 11 -15q74 -79 202 -79q139 5 139 89v21q0 88 -262 209q-216 94 -216 254q0 248 309 272q155 0 248 -52q18 52 72 52v-354q-51 0 -71.5 63.5t-37.5 87.5q-11 17 -27 31q-74 41 -164 41h-39q-101 -5 -101 -81
q0 -103 237 -185q272 -123 272 -278q0 -267 -359 -292q-141 1 -212 36q-21 8 -40 18zM475 1449q64 0 246 -311q0 -28 -38 -37q-27 0 -246 169h-19q-207 -169 -244 -169q-31 9 -37 37q184 311 244 311h94z" />
    <glyph glyph-name="Scedilla" unicode="&#x15e;" 
d="M496 1208q-179 0 -179 -148q0 -127 466 -337q267 -141 277 -346q0 -360 -436 -377q-259 0 -416 70q-25 -70 -99 -70v485q70 0 98 -87t51 -120q89 -139 376 -139q178 20 178 158v10q0 146 -465 346q-257 127 -257 337q11 304 346 347q230 11 396 -64q71 -38 44 -98
q-30 -64 -114 -25q-123 56 -266 58zM601 23h46q45 0 32 -40l-8 -24q106 -55 106 -149q0 -201 -276 -212q-122 0 -128 53q0 64 74 67q107 0 107 57q0 41 -53 49t-43 50q89 149 143 149z" />
    <glyph glyph-name="scedilla" unicode="&#x15f;" horiz-adv-x="850" 
d="M167 55q-20 -55 -77 -55v378q54 0 76 -68t40 -93q5 -8 11 -15q74 -79 202 -79q139 5 139 89v21q0 88 -262 209q-216 94 -216 254q0 248 309 272q155 0 248 -52q18 52 72 52v-354q-51 0 -71.5 63.5t-37.5 87.5q-11 17 -27 31q-74 41 -164 41h-39q-101 -5 -101 -81
q0 -103 237 -185q272 -123 272 -278q0 -267 -359 -292q-141 1 -212 36q-21 8 -40 18zM455 23h46q45 0 32 -40l-8 -24q106 -55 106 -149q0 -201 -276 -212q-122 0 -128 53q0 64 74 67q107 0 107 57q0 41 -53 49t-43 50q89 149 143 149z" />
    <glyph glyph-name="Scaron" unicode="&#x160;" 
d="M496 1208q-179 0 -179 -148q0 -127 466 -337q267 -141 277 -346q0 -360 -436 -377q-259 0 -416 70q-25 -70 -99 -70v485q70 0 98 -87t51 -120q89 -139 376 -139q178 20 178 158v10q0 146 -465 346q-257 127 -257 337q11 304 346 347q230 11 396 -64q71 -38 44 -98
q-30 -64 -114 -25q-123 56 -266 58zM527 1483q-60 0 -244 311q6 28 37 37q37 0 244 -169h19q219 169 246 169q38 -9 38 -37q-182 -311 -246 -311h-94z" />
    <glyph glyph-name="scaron" unicode="&#x161;" horiz-adv-x="850" 
d="M167 55q-20 -55 -77 -55v378q54 0 76 -68t40 -93q5 -8 11 -15q74 -79 202 -79q139 5 139 89v21q0 88 -262 209q-216 94 -216 254q0 248 309 272q155 0 248 -52q18 52 72 52v-354q-51 0 -71.5 63.5t-37.5 87.5q-11 17 -27 31q-74 41 -164 41h-39q-101 -5 -101 -81
q0 -103 237 -185q272 -123 272 -278q0 -267 -359 -292q-141 1 -212 36q-21 8 -40 18zM381 1101q-60 0 -244 311q6 28 37 37q37 0 244 -169h19q219 169 246 169q38 -9 38 -37q-182 -311 -246 -311h-94z" />
    <glyph glyph-name="Tcaron" unicode="&#x164;" horiz-adv-x="1374" 
d="M823 185q-1 -57 97 -85t98 -100h-669q0 72 97.5 96t97.5 90v1122q0 42 40 42h199q40 0 40 -42v-1123zM358 1199h-91q-73 -5 -92 -107.5t-105 -102.5v322q0 39 42 39h234q98 0 98 -75q0 -71 -86 -76zM1264 1350q42 0 42 -37v-324q-73 0 -101.5 107t-100.5 107h-86
q-95 0 -95 73.5t95 73.5h246zM640 1483q-60 0 -244 311q6 28 37 37q37 0 244 -169h19q219 169 246 169q38 -9 38 -37q-182 -311 -246 -311h-94z" />
    <glyph glyph-name="tcaron" unicode="&#x165;" horiz-adv-x="1070" 
d="M365 1264q61 0 61 -55v-205q0 -34 31 -34h116q73 0 73 -64q0 -73 -93 -73h-93q-34 0 -34 -32v-580q2 -61 95 -31q55 74 104 74q31 -6 42 -32q0 -210 -261 -232q-228 12 -229 274v527q0 32 -32 32h-32q-83 0 -83 62q3 60 159 124q89 55 153 217q6 25 23 28zM779 1276
q203 -6 209 -229q0 -207 -285 -343q-27 0 -41 37q0 40 98 128q78 73 78 129v20l-78 -20q-133 2 -140 129q0 149 159 149z" />
    <glyph glyph-name="Tbar" unicode="&#x166;" horiz-adv-x="1374" 
d="M358 1199h-91q-73 -5 -92 -107.5t-105 -102.5v322q0 39 42 39h234q98 0 98 -75q0 -71 -86 -76zM823 603v-418q-1 -57 97 -85t98 -100h-669q0 72 97.5 96t97.5 90v417h-261q-82 0 -82 73q0 71 93 71h250v561q0 42 40 42h199q40 0 40 -42v-561h259q93 0 93 -83
q-14 -61 -91 -61h-261zM1264 1350q42 0 42 -37v-324q-73 0 -101.5 107t-100.5 107h-86q-95 0 -95 73.5t95 73.5h246z" />
    <glyph glyph-name="tbar" unicode="&#x167;" horiz-adv-x="687" 
d="M177 578v223q0 32 -32 32h-32q-83 0 -83 62q3 60 159 124q89 55 153 217q6 25 23 28q61 0 61 -55v-205q0 -34 31 -34h116q73 0 73 -64q0 -73 -93 -73h-93q-34 0 -34 -32v-223h47q93 0 93 -83q-14 -61 -91 -61h-49v-213q2 -61 95 -31q55 74 104 74q31 -6 42 -32
q0 -210 -261 -232q-228 12 -229 274v160h-53q-82 0 -82 73q0 71 93 71h42z" />
    <glyph glyph-name="Utilde" unicode="&#x168;" horiz-adv-x="1619" 
d="M704 1350q0 -72 -99 -98.5t-110 -99.5v-722q1 -298 343 -312q393 0 393 332v713q0 55 -99.5 85t-99.5 102h562q0 -72 -98 -101.5t-99 -95.5v-702q-10 -452 -539 -479h-73q-451 0 -538 374q-20 100 -20 278v519q0 77 -98.5 106t-98.5 101h674zM677 1833q48 0 330 -134
q51 0 82 124l31 10q65 -2 52 -72q-37 -238 -238 -238q-68 0 -308 125h-31q-26 0 -63 -114q-23 -16 -52.5 -8.5t-29.5 39.5q21 268 227 268z" />
    <glyph glyph-name="utilde" unicode="&#x169;" horiz-adv-x="1241" 
d="M792 803q0 52 -72 74t-72 92h319q73 0 73 -74v-706q1 -71 72.5 -96t71.5 -93h-331q-61 8 -61 75v728zM514 0q-269 0 -279 304v487q0 63 -82 83t-83 95h340q62 0 62 -63v-541q0 -171 125 -177q69 6 91 -58q28 -85 -82 -121q-33 -8 -92 -9zM492 1451q48 0 330 -134
q51 0 82 124l31 10q65 -2 52 -72q-37 -238 -238 -238q-68 0 -308 125h-31q-26 0 -63 -114q-23 -16 -52.5 -8.5t-29.5 39.5q21 268 227 268z" />
    <glyph glyph-name="Ubreve" unicode="&#x16c;" horiz-adv-x="1619" 
d="M704 1350q0 -72 -99 -98.5t-110 -99.5v-722q1 -298 343 -312q393 0 393 332v713q0 55 -99.5 85t-99.5 102h562q0 -72 -98 -101.5t-99 -95.5v-702q-10 -452 -539 -479h-73q-451 0 -538 374q-20 100 -20 278v519q0 77 -98.5 106t-98.5 101h674zM534 1833q96 -144 196 -144
h155q122 0 195 144h21q41 -10 41 -41q-10 -275 -340 -289q-320 14 -320 310z" />
    <glyph glyph-name="ubreve" unicode="&#x16d;" horiz-adv-x="1241" 
d="M792 803q0 52 -72 74t-72 92h319q73 0 73 -74v-706q1 -71 72.5 -96t71.5 -93h-331q-61 8 -61 75v728zM514 0q-269 0 -279 304v487q0 63 -82 83t-83 95h340q62 0 62 -63v-541q0 -171 125 -177q69 6 91 -58q28 -85 -82 -121q-33 -8 -92 -9zM349 1451q96 -144 196 -144h155
q122 0 195 144h21q41 -10 41 -41q-10 -275 -340 -289q-320 14 -320 310z" />
    <glyph glyph-name="Uring" unicode="&#x16e;" horiz-adv-x="1619" 
d="M704 1350q0 -72 -99 -98.5t-110 -99.5v-722q1 -298 343 -312q393 0 393 332v713q0 55 -99.5 85t-99.5 102h562q0 -72 -98 -101.5t-99 -95.5v-702q-10 -452 -539 -479h-73q-451 0 -538 374q-20 100 -20 278v519q0 77 -98.5 106t-98.5 101h674zM626 1586q-14 31 -14 67
q0 75 58.5 128t141.5 53h1q83 0 141.5 -53t58.5 -128q0 -36 -14 -67q-3 -7 -7 -14q-9 -15 -21 -29q-54 -53 -95 -11q-39 39 7 88q3 5 5 10h-1q4 10 4 23q0 30 -23 51t-55 21q-33 0 -56 -21t-23 -51q0 -13 4 -23h-1q2 -5 5 -10q46 -49 7 -88q-41 -42 -95 11q-12 14 -21 29
q-4 7 -7 14z" />
    <glyph glyph-name="uring" unicode="&#x16f;" horiz-adv-x="1241" 
d="M792 803q0 52 -72 74t-72 92h319q73 0 73 -74v-706q1 -71 72.5 -96t71.5 -93h-331q-61 8 -61 75v728zM514 0q-269 0 -279 304v487q0 63 -82 83t-83 95h340q62 0 62 -63v-541q0 -171 125 -177q69 6 91 -58q28 -85 -82 -121q-33 -8 -92 -9zM441 1204q-14 31 -14 67
q0 75 58.5 128t141.5 53h1q83 0 141.5 -53t58.5 -128q0 -36 -14 -67q-3 -7 -7 -14q-9 -15 -21 -29q-54 -53 -95 -11q-39 39 7 88q3 5 5 10h-1q4 10 4 23q0 30 -23 51t-55 21q-33 0 -56 -21t-23 -51q0 -13 4 -23h-1q2 -5 5 -10q46 -49 7 -88q-41 -42 -95 11q-12 14 -21 29
q-4 7 -7 14z" />
    <glyph glyph-name="Uhungarumlaut" unicode="&#x170;" horiz-adv-x="1619" 
d="M704 1350q0 -72 -99 -98.5t-110 -99.5v-722q1 -298 343 -312q393 0 393 332v713q0 55 -99.5 85t-99.5 102h562q0 -72 -98 -101.5t-99 -95.5v-702q-10 -452 -539 -479h-73q-451 0 -538 374q-20 100 -20 278v519q0 77 -98.5 106t-98.5 101h674zM881 1834q32 -1 32 -32
q-5 -21 -24 -40l-191 -225q-24 -34 -52 -34q-32 0 -32 34l73 254q13 43 45 43h149zM1179 1834q32 -1 32 -32q-5 -21 -24 -40l-190 -225q-25 -34 -53 -34q-31 0 -31 34l73 254q12 43 44 43h149z" />
    <glyph glyph-name="uhungarumlaut" unicode="&#x171;" horiz-adv-x="1241" 
d="M792 803q0 52 -72 74t-72 92h319q73 0 73 -74v-706q1 -71 72.5 -96t71.5 -93h-331q-61 8 -61 75v728zM514 0q-269 0 -279 304v487q0 63 -82 83t-83 95h340q62 0 62 -63v-541q0 -171 125 -177q69 6 91 -58q28 -85 -82 -121q-33 -8 -92 -9zM696 1452q32 -1 32 -32
q-5 -21 -24 -40l-191 -225q-24 -34 -52 -34q-32 0 -32 34l73 254q13 43 45 43h149zM994 1452q32 -1 32 -32q-5 -21 -24 -40l-190 -225q-25 -34 -53 -34q-31 0 -31 34l73 254q12 43 44 43h149z" />
    <glyph glyph-name="Uogonek" unicode="&#x172;" horiz-adv-x="1619" 
d="M704 1350q0 -72 -99 -98.5t-110 -99.5v-722q1 -298 343 -312q393 0 393 332v713q0 55 -99.5 85t-99.5 102h562q0 -72 -98 -101.5t-99 -95.5v-702q-10 -452 -539 -479h-73q-451 0 -538 374q-20 100 -20 278v519q0 77 -98.5 106t-98.5 101h674zM1219 170q49 -12 49 -29v-19
q-154 -143 -154 -229q9 -66 68 -66l86 9q37 -9 37 -67q-45 -85 -191 -95q-190 0 -190 162q0 156 295 334z" />
    <glyph glyph-name="uogonek" unicode="&#x173;" horiz-adv-x="1241" 
d="M792 803q0 52 -72 74t-72 92h319q73 0 73 -74v-706q1 -71 72.5 -96t71.5 -93h-331q-61 8 -61 75v728zM514 0q-269 0 -279 304v487q0 63 -82 83t-83 95h340q62 0 62 -63v-541q0 -171 125 -177q69 6 91 -58q28 -85 -82 -121q-33 -8 -92 -9zM1038 94q49 -12 49 -29v-19
q-154 -143 -154 -229q9 -66 68 -66l86 9q37 -9 37 -67q-45 -85 -191 -95q-190 0 -190 162q0 156 295 334z" />
    <glyph glyph-name="Wcircumflex" unicode="&#x174;" horiz-adv-x="1954" 
d="M742 48q-16 -44 -52 -48q-34 0 -54 49l-456 1138q-21 50 -90.5 76t-69.5 87h578q0 -61 -74 -89t-58 -73l285 -731l77 200q36 95 106.5 68t34.5 -122zM2020 1593l-590 -1541q-18 -52 -66 -52q-49 0 -66 50l-435 1117q-20 63 -107 88.5t-87 94.5h609q2 -67 -78 -92.5
t-74 -80.5l279 -719l468 1169q35 92 105 65q61 -24 42 -99zM1068 1831q64 0 246 -311q0 -28 -38 -37q-27 0 -246 169h-19q-207 -169 -244 -169q-31 9 -37 37q184 311 244 311h94z" />
    <glyph glyph-name="wcircumflex" unicode="&#x175;" horiz-adv-x="1615" 
d="M697 816q-8 39 -78.5 63.5t-72.5 90.5h516q0 -66 -72 -91t-52 -56l191 -464l182 459q20 46 -37 68t-57 84h372q0 -57 -50.5 -79t-63.5 -57l-350 -801q-15 -33 -46 -33q-30 0 -45 31zM561 33q-14 -33 -43 -33q-28 0 -42 36l-348 799q-15 35 -61.5 58.5t-46.5 76.5h464
q0 -55 -53.5 -80t-38.5 -56l183 -479l50 89q44 80 105.5 46t17.5 -114zM851 1449q64 0 246 -311q0 -28 -38 -37q-27 0 -246 169h-19q-207 -169 -244 -169q-31 9 -37 37q184 311 244 311h94z" />
    <glyph glyph-name="Ycircumflex" unicode="&#x176;" horiz-adv-x="1589" 
d="M909 650q22 -27 18 -73v-391q-1 -52 97 -83t98 -103h-659q0 72 97.5 100.5t97.5 86.5v379l-463 623q-26 49 -98.5 70t-76.5 90h662q-1 -70 -92.5 -96t-64.5 -69zM1167 1173q10 59 -74 82t-84 94h556q1 -68 -84 -95t-125 -86l-286 -383q-54 -74 -111 -33t-3 116zM839 1831
q64 0 246 -311q0 -28 -38 -37q-27 0 -246 169h-19q-207 -169 -244 -169q-31 9 -37 37q184 311 244 311h94z" />
    <glyph glyph-name="ycircumflex" unicode="&#x177;" horiz-adv-x="1177" 
d="M742 160l-203 -438q-78 -152 -296 -152q-171 0 -180 141q0 113 149 129q100 -2 159 -33q75 0 171 268l-397 745q-25 44 -75 69t-50 79h522q0 -63 -72.5 -88.5t-57.5 -61.5l328 -601q14 -28 2 -57zM730 493l132 332q15 39 -36.5 58t-60.5 85h393q-1 -57 -47.5 -78.5
t-63.5 -62.5l-176 -382l-3 -7q-37 -89 -106 -60q-68 28 -32 115zM635 1449q64 0 246 -311q0 -28 -38 -37q-27 0 -246 169h-19q-207 -169 -244 -169q-31 9 -37 37q184 311 244 311h94z" />
    <glyph glyph-name="Ydieresis" unicode="&#x178;" horiz-adv-x="1589" 
d="M909 650q22 -27 18 -73v-391q-1 -52 97 -83t98 -103h-659q0 72 97.5 100.5t97.5 86.5v379l-463 623q-26 49 -98.5 70t-76.5 90h662q-1 -70 -92.5 -96t-64.5 -69zM1167 1173q10 59 -74 82t-84 94h556q1 -68 -84 -95t-125 -86l-286 -383q-54 -74 -111 -33t-3 116zM604 1838
q138 -4 138 -139q0 -119 -138 -129q-140 4 -140 129q0 131 140 139zM984 1838q138 -4 138 -139q0 -119 -138 -129q-140 4 -140 129q0 131 140 139z" />
    <glyph glyph-name="Zacute" unicode="&#x179;" horiz-adv-x="1293" 
d="M458 1348v1h785q33 0 33 -41l-964 -1276q-21 -32 -64 -32h-186q-42 0 -42 52l844 1122v21h-494q-62 0 -100.5 -104.5t-113.5 -104.5l15 220q0 142 109 142h178zM557 0q-94 0 -94 72t94 72h489q58 0 95.5 115t118.5 115l-17 -240q0 -134 -103 -134h-583zM903 1834
q35 -1 35 -32q-5 -21 -26 -40l-211 -225q-27 -34 -58 -34q-35 0 -35 34l81 254q14 43 49 43h165z" />
    <glyph glyph-name="zacute" unicode="&#x17a;" horiz-adv-x="1001" 
d="M301 829q-90 0 -114 -90.5t-103 -90.5v264q0 55 56 55h763q74 0 74 -63l-36 -45q-24 -30 -64 -30h-576zM378 158q-17 -20 16 -20h342q104 0 119 103.5t111 109.5v-303q0 -47 -56 -48h-855q-35 0 -35 36q0 56 52 109l466 557q91 111 176 41.5t-6 -180.5zM754 1452
q35 -1 35 -32q-5 -21 -26 -40l-211 -225q-27 -34 -58 -34q-35 0 -35 34l81 254q14 43 49 43h165z" />
    <glyph glyph-name="Zdotaccent" unicode="&#x17b;" horiz-adv-x="1293" 
d="M458 1348v1h785q33 0 33 -41l-964 -1276q-21 -32 -64 -32h-186q-42 0 -42 52l844 1122v21h-494q-62 0 -100.5 -104.5t-113.5 -104.5l15 220q0 142 109 142h178zM557 0q-94 0 -94 72t94 72h489q58 0 95.5 115t118.5 115l-17 -240q0 -134 -103 -134h-583zM649 1828
q138 -4 138 -139q0 -119 -138 -129q-140 4 -140 129q0 131 140 139z" />
    <glyph glyph-name="zdotaccent" unicode="&#x17c;" horiz-adv-x="1001" 
d="M301 829q-90 0 -114 -90.5t-103 -90.5v264q0 55 56 55h763q74 0 74 -63l-36 -45q-24 -30 -64 -30h-576zM378 158q-17 -20 16 -20h342q104 0 119 103.5t111 109.5v-303q0 -47 -56 -48h-855q-35 0 -35 36q0 56 52 109l466 557q91 111 176 41.5t-6 -180.5zM500 1426
q138 -4 138 -139q0 -119 -138 -129q-140 4 -140 129q0 131 140 139z" />
    <glyph glyph-name="Zcaron" unicode="&#x17d;" horiz-adv-x="1293" 
d="M458 1348v1h785q33 0 33 -41l-964 -1276q-21 -32 -64 -32h-186q-42 0 -42 52l844 1122v21h-494q-62 0 -100.5 -104.5t-113.5 -104.5l15 220q0 142 109 142h178zM557 0q-94 0 -94 72t94 72h489q58 0 95.5 115t118.5 115l-17 -240q0 -134 -103 -134h-583zM600 1483
q-60 0 -244 311q6 28 37 37q37 0 244 -169h19q219 169 246 169q38 -9 38 -37q-182 -311 -246 -311h-94z" />
    <glyph glyph-name="zcaron" unicode="&#x17e;" horiz-adv-x="1001" 
d="M301 829q-90 0 -114 -90.5t-103 -90.5v264q0 55 56 55h763q74 0 74 -63l-36 -45q-24 -30 -64 -30h-576zM378 158q-17 -20 16 -20h342q104 0 119 103.5t111 109.5v-303q0 -47 -56 -48h-855q-35 0 -35 36q0 56 52 109l466 557q91 111 176 41.5t-6 -180.5zM451 1101
q-60 0 -244 311q6 28 37 37q37 0 244 -169h19q219 169 246 169q38 -9 38 -37q-182 -311 -246 -311h-94z" />
    <glyph glyph-name="circumflex" unicode="&#x2c6;" horiz-adv-x="636" 
d="M368 1349q64 0 246 -311q0 -28 -38 -37q-27 0 -246 169h-19q-207 -169 -244 -169q-31 9 -37 37q184 311 244 311h94z" />
    <glyph glyph-name="caron" unicode="&#x2c7;" horiz-adv-x="640" 
d="M264 1001q-60 0 -244 311q6 28 37 37q37 0 244 -169h19q219 169 246 169q38 -9 38 -37q-182 -311 -246 -311h-94z" />
    <glyph glyph-name="breve" unicode="&#x2d8;" horiz-adv-x="713" 
d="M72 1351q96 -144 196 -144h155q122 0 195 144h21q41 -10 41 -41q-10 -275 -340 -289q-320 14 -320 310z" />
    <glyph glyph-name="dotaccent" unicode="&#x2d9;" horiz-adv-x="468" 
d="M241 1346q138 -4 138 -139q0 -119 -138 -129q-140 4 -140 129q0 131 140 139z" />
    <glyph glyph-name="ring" unicode="&#x2da;" horiz-adv-x="601" 
d="M114 1104q-14 31 -14 67q0 75 58.5 128t141.5 53h1q83 0 141.5 -53t58.5 -128q0 -36 -14 -67q-3 -7 -7 -14q-9 -15 -21 -29q-54 -53 -95 -11q-39 39 7 88q3 5 5 10h-1q4 10 4 23q0 30 -23 51t-55 21q-33 0 -56 -21t-23 -51q0 -13 4 -23h-1q2 -5 5 -10q46 -49 7 -88
q-41 -42 -95 11q-12 14 -21 29q-4 7 -7 14z" />
    <glyph glyph-name="ogonek" unicode="&#x2db;" horiz-adv-x="550" 
d="M315 94q49 -12 49 -29v-19q-154 -143 -154 -229q9 -66 68 -66l86 9q37 -9 37 -67q-45 -85 -191 -95q-190 0 -190 162q0 156 295 334z" />
    <glyph glyph-name="tilde" unicode="&#x2dc;" horiz-adv-x="782" 
d="M257 1351q48 0 330 -134q51 0 82 124l31 10q65 -2 52 -72q-37 -238 -238 -238q-68 0 -308 125h-31q-26 0 -63 -114q-23 -16 -52.5 -8.5t-29.5 39.5q21 268 227 268z" />
    <glyph glyph-name="hungarumlaut" unicode="&#x2dd;" horiz-adv-x="623" 
d="M366 1352q32 -1 32 -32q-5 -21 -24 -40l-191 -225q-24 -34 -52 -34q-32 0 -32 34l73 254q13 43 45 43h149zM664 1352q32 -1 32 -32q-5 -21 -24 -40l-190 -225q-25 -34 -53 -34q-31 0 -31 34l73 254q12 43 44 43h149z" />
    <glyph glyph-name="quoteleft" unicode="&#x2018;" horiz-adv-x="468" 
d="M259 904q-203 6 -209 229q0 207 285 343q27 0 41 -37q0 -40 -98 -128q-78 -73 -78 -129v-20l78 20q133 -2 140 -129q0 -149 -159 -149z" />
    <glyph glyph-name="quoteright" unicode="&#x2019;" horiz-adv-x="468" 
d="M209 1476q203 -6 209 -229q0 -207 -285 -343q-27 0 -41 37q0 40 98 128q78 73 78 129v20l-78 -20q-133 2 -140 129q0 149 159 149z" />
    <glyph glyph-name="quotesinglbase" unicode="&#x201a;" horiz-adv-x="468" 
d="M209 276q203 -6 209 -229q0 -207 -285 -343q-27 0 -41 37q0 40 98 128q78 73 78 129v20l-78 -20q-133 2 -140 129q0 149 159 149z" />
    <glyph glyph-name="quotedblleft" unicode="&#x201c;" horiz-adv-x="885" 
d="M259 904q-203 6 -209 229q0 207 285 343q27 0 41 -37q0 -40 -98 -128q-78 -73 -78 -129v-20l78 20q133 -2 140 -129q0 -149 -159 -149zM679 904q-203 6 -209 229q0 207 285 343q27 0 41 -37q0 -40 -98 -128q-78 -73 -78 -129v-20l78 20q133 -2 140 -129q0 -149 -159 -149
z" />
    <glyph glyph-name="quotedblright" unicode="&#x201d;" horiz-adv-x="885" 
d="M629 1476q203 -6 209 -229q0 -207 -285 -343q-27 0 -41 37q0 40 98 128q78 73 78 129v20l-78 -20q-133 2 -140 129q0 149 159 149zM209 1476q203 -6 209 -229q0 -207 -285 -343q-27 0 -41 37q0 40 98 128q78 73 78 129v20l-78 -20q-133 2 -140 129q0 149 159 149z" />
    <glyph glyph-name="quotedblbase" unicode="&#x201e;" horiz-adv-x="885" 
d="M629 276q203 -6 209 -229q0 -207 -285 -343q-27 0 -41 37q0 40 98 128q78 73 78 129v20l-78 -20q-133 2 -140 129q0 149 159 149zM209 276q203 -6 209 -229q0 -207 -285 -343q-27 0 -41 37q0 40 98 128q78 73 78 129v20l-78 -20q-133 2 -140 129q0 149 159 149z" />
    <glyph glyph-name="fraction" unicode="&#x2044;" horiz-adv-x="636" 
d="M630 1346l-507 -1340l-50 -10q-69 10 -69 30l496 1321q70 39 130 -1z" />
    <glyph glyph-name="fraction" unicode="&#x2215;" horiz-adv-x="636" 
d="M630 1346l-507 -1340l-50 -10q-69 10 -69 30l496 1321q70 39 130 -1z" />
    <glyph glyph-name="Euro" unicode="&#x20ac;" horiz-adv-x="1246" 
d="M164 893q99 429 538 457q180 0 270.5 -32t163.5 -28q31 0 32 -30l31 -337q-62 -16 -135 137q-121 161 -353 161q-245 0 -303 -328h334q69 0 69 -69v-10q0 -69 -89 -69h-330q-2 -33 -2 -69q0 -42 2 -80h350q69 0 69 -70v-10q0 -60 -60 -60h-339q62 -267 298 -308
q290 0 456 248h9q38 -19 42 -39v-20q-173 -337 -506 -337q-464 28 -554 456h-88q-69 0 -69 70t89 70h50q-1 14 -2 29v49q1 36 5 71h-43q-99 0 -99 79q0 69 89 69h75z" />
    <glyph glyph-name="trademark" unicode="&#x2122;" horiz-adv-x="1542" 
d="M408.36 884.005q-0.450195 -22.8018 43.6514 -34.0029q44.1006 -11.2002 44.1006 -40.002h-301.058q0 28.8018 43.876 38.4023t43.876 36.002v448.828q0 16.8008 18 16.8008h89.5527q18.001 0 18.001 -16.8008v-449.228zM199.104 1289.63h-40.9512
q-32.8506 -2 -41.4014 -43.002q-8.5498 -41.0029 -47.251 -41.0029v128.808q0 15.6016 18.9004 15.6016h105.303q44.1016 0 44.1016 -30.002q0 -28.4023 -38.7012 -30.4023zM606.815 1350.03q18.9004 0 18.9004 -14.8008v-129.608q-32.8506 0 -45.6758 42.8027
t-45.2266 42.8027h-38.7012q-42.751 0 -42.751 29.4014q0 29.4023 42.751 29.4023h110.703zM1318.77 1350.03h180.904q0 -27.6016 -44.5508 -39.0029q-44.5518 -11.4004 -44.5518 -37.002v-392.424q1.35059 -22.4014 45.4512 -33.2021q44.1016 -10.8008 44.1016 -38.4023
h-297.458q0 28.8018 44.7764 39.002q44.7764 10.2012 42.5264 33.4023v442.827q2.7002 24.8018 28.8008 24.8018zM1071.26 821.201q-5.85059 -11.2012 -19.8008 -11.2012t-20.25 11.6006l-277.658 463.229q-24.3008 22.001 -61.4268 29.2021q-37.126 7.2002 -37.126 36.002
h180.455q23.8506 0 35.1006 -21.2012l210.606 -358.022l113.402 188.812q23.4014 35.2021 53.7773 20.6016q30.375 -14.6006 8.77441 -49.8027zM817.005 885.604q-0.900391 -24.001 45.6758 -36.2021t46.5762 -39.4023h-254.257q0 28.8018 46.3516 40.4023t46.3516 34.4023
l0.449219 241.215q0 40.002 34.4268 40.002q34.4258 0 34.4258 -40.002v-240.415z" />
    <glyph glyph-name="minus" unicode="&#x2212;" horiz-adv-x="644" 
d="M124 574h387q100 0 100 -99q0 -100 -100 -100h-387q-99 0 -99 100q0 99 99 99z" />
    <glyph glyph-name="lessequal" unicode="&#x2264;" horiz-adv-x="1190" 
d="M109 140h983q69 0 69 -70v-10q0 -60 -60 -60h-1012q-69 0 -69 70t89 70zM1122 1171q46 -8 51 -57t-25 -66l-840 -344l834 -347q34 -27 26.5 -78t-46.5 -51l-1074 445q-28 12 -28 37q0 24 27 34z" />
    <glyph glyph-name="greaterequal" unicode="&#x2265;" horiz-adv-x="1190" 
d="M1174 70q0 -70 -69 -70h-1012q-60 0 -60 60v10q0 70 69 70h983q89 0 89 -70zM1147 744q27 -10 27 -34q0 -25 -28 -37l-1074 -445q-39 0 -46.5 51t26.5 78l834 347l-840 344q-30 17 -25 66t51 57z" />
    <glyph glyph-name="IJ" unicode="&#x132;" horiz-adv-x="1409" 
d="M216 1164q0 62 -98 88t-98 98h659q0 -72 -98 -98t-98 -88v-978q0 -62 98 -88t98 -98h-659q0 72 98 98t98 88v978zM1380 1349q0 -71 -95.5 -104t-95.5 -87v-1055q0 -444 -394 -453q-217 0 -231 161q10 129 142 141q140 0 140 -171q80 0 80 90v1286q0 61 -97.5 91
t-97.5 101h649z" />
    <glyph glyph-name="ij" unicode="&#x133;" horiz-adv-x="1074" 
d="M298 1351q134 -4 134 -134q0 -123 -134 -124q-136 0 -144 124q0 126 144 134zM360 968q61 0 61 -73v-741q0 -45 67.5 -66t67.5 -88h-526q0 63 72 88.5t72 86.5v635q0 52 -72 72t-72 86h330zM889 970q52 -15 52 -72v-857q-19 -453 -402 -453q-204 0 -216 104v30
q20 103 102 103h11q111 0 196 -93q51 0 62 42v1038q-2 50 -73.5 70.5t-71.5 87.5h340zM802 1351q134 -4 134 -134q0 -123 -134 -124q-136 0 -144 124q0 126 144 134z" />
    <glyph glyph-name="uniFB00" unicode="&#xfb00;" horiz-adv-x="1323" 
d="M639 1216q-146 0 -151 -130v-148q0 -31 30 -31h244q29 0 30 29v81q-1 173 -153 199zM654 0q0 70 66.5 89.5t67.5 91.5v555q0 31 -35 31h-230q-35 0 -35 -33v-574q0 -55 69 -71t69 -89h-547q0 70 85.5 95t84.5 89v552q0 31 -35 31h-55q-89 0 -89 80q9 60 99 60h50
q30 0 30 29q0 289 279 399q56 18 136 15q115 -6 199 -81q20 -19 36 -39q65 64 168 105q91 30 249.5 9t168.5 -148q-3 -140 -149 -140q-128 0 -140 150q-30 30 -99 20q-60 -11 -70 -110v-178q0 -31 30 -31h109q100 0 100 -69q0 -71 -89 -71h-115q-35 0 -35 -33v-554
q0 -55 99.5 -81t99.5 -99h-572z" />
    <glyph glyph-name="uniFB01" unicode="&#xfb01;" horiz-adv-x="1185" 
d="M959 968q61 0 61 -73v-741q0 -45 67.5 -66t67.5 -88h-508q0 63 63 85t63 80v645q0 52 -47 72t-47 86h280zM79 0q0 70 85 95t85 79v562q0 31 -35 31h-55q-89 0 -89 80q9 60 99 60h50q30 0 30 29q0 309 309 399q151 30 284.5 4t143.5 -143q-3 -140 -149 -140
q-128 0 -140 150q-30 30 -109 20q-90 -11 -100 -110v-178q0 -31 30 -31h29q100 0 100 -69q0 -71 -89 -71h-35q-35 0 -35 -33v-560q0 -65 63.5 -86t63.5 -88h-536z" />
    <glyph glyph-name="uniFB02" unicode="&#xfb02;" horiz-adv-x="1220" 
d="M79 0q0 70 85 95t85 79v562q0 31 -35 31h-55q-89 0 -89 80q9 60 99 60h50q30 0 30 29q0 299 279 396q82 20 193 18h240q64 0 64 -66v-1104q0 -63 73 -87t75 -93h-524q0 68 59.5 93t59.5 79v884q-19 170 -170 170q-100 -11 -110 -110v-178q0 -31 30 -31h29q100 0 100 -69
q0 -71 -89 -71h-35q-35 0 -35 -33v-560q0 -65 65.5 -86t65.5 -88h-540z" />
    <glyph glyph-name="uniFB03" unicode="&#xfb03;" horiz-adv-x="1727" 
d="M781 1090q-30 112 -142 126q-146 0 -151 -130v-148q0 -31 30 -31h244q29 0 30 29v39q0 76 -11 115zM1498 968q61 0 61 -73v-741q0 -45 67.5 -66t67.5 -88h-501q0 63 59.5 88.5t59.5 86.5v635q0 52 -47 72t-47 86h280zM653 0q0 70 67.5 95t67.5 79v562q0 31 -35 31h-230
q-35 0 -35 -33v-560q0 -65 67.5 -86t67.5 -88h-544q0 70 85 95t85 79v562q0 31 -35 31h-55q-89 0 -89 80q9 60 99 60h50q30 0 30 29q0 289 279 399q56 18 136 15q115 -6 199 -81q20 -19 36 -39q36 35 91 63v-1q48 26 107 43q151 30 284.5 4t143.5 -143q-3 -140 -149 -140
q-128 0 -140 150q-30 30 -109 20q-90 -11 -100 -110v-178q0 -31 30 -31h29q100 0 100 -69q0 -71 -89 -71h-35q-35 0 -35 -33v-560q0 -65 67.5 -86t67.5 -88h-509z" />
    <glyph glyph-name="uniFB04" unicode="&#xfb04;" horiz-adv-x="1744" 
d="M762 907q30 0 30 29v81q-1 173 -153 199q-146 0 -151 -130v-148q0 -31 30 -31h244zM488 174q0 -65 67.5 -86t67.5 -88h-544q0 70 85 95t85 79v562q0 31 -35 31h-55q-89 0 -89 80q9 60 99 60h50q30 0 30 29q0 289 279 399q56 18 136 15q115 -6 199 -81q19 -18 35 -37
q65 64 169 100q82 20 193 18h240q64 0 64 -66v-1104q0 -63 73 -87t75 -93h-519q0 68 57 93t57 79v884q-19 170 -170 170q-100 -11 -110 -110v-178q0 -31 30 -31h29q100 0 100 -69q0 -71 -89 -71h-35q-35 0 -35 -33v-560q0 -65 67.5 -86t67.5 -88h-511q0 70 68.5 95t68.5 79
v562q0 31 -35 31h-230q-35 0 -35 -33v-560z" />
    <glyph glyph-name="uniFB06" unicode="&#xfb06;" horiz-adv-x="1523" 
d="M709 614q-51 0 -71.5 63.5t-37.5 87.5q-11 17 -27 31q-74 41 -164 41h-39q-101 -5 -101 -81q0 -103 237 -185q272 -123 272 -278q0 -267 -359 -292q-141 1 -212 36q-21 8 -40 18q-20 -55 -77 -55v378q54 0 76 -68t40 -93q5 -8 11 -15q74 -79 202 -79q139 5 139 89v21
q0 88 -262 209q-216 94 -216 254q0 248 309 272q155 0 235 -41v82q0 128 91 219.5t220 91.5t220 -91q91 -95 91 -225q0 -34 31 -34h116q73 0 73 -64q0 -73 -93 -73h-93q-34 0 -34 -32v-580q2 -61 95 -31q55 74 104 74q31 -6 42 -32q0 -210 -261 -232q-228 12 -229 274v527
q0 32 -32 32h-32q-83 0 -83 62q3 60 159 124q65 33 90.5 71t-0.5 75q-59 72 -164 72q-94 0 -160 -67t-66 -161v-395z" />
    </font>
</defs>
</svg>
